<?xml version="1.0" encoding="UTF-8" standalone="no"?>
<svg
   xmlns:dc="http://purl.org/dc/elements/1.1/"
   xmlns:cc="http://creativecommons.org/ns#"
   xmlns:rdf="http://www.w3.org/1999/02/22-rdf-syntax-ns#"
   xmlns:svg="http://www.w3.org/2000/svg"
   xmlns="http://www.w3.org/2000/svg"
   xmlns:sodipodi="http://sodipodi.sourceforge.net/DTD/sodipodi-0.dtd"
   xmlns:inkscape="http://www.inkscape.org/namespaces/inkscape"
   version="1.1"
   id="svg2"
   xml:space="preserve"
   width="3936.6667"
   height="2666.6667"
   viewBox="0 0 3936.6667 2666.6667"
   sodipodi:docname="7139.eps"><metadata
     id="metadata8"><rdf:RDF><cc:Work
         rdf:about=""><dc:format>image/svg+xml</dc:format><dc:type
           rdf:resource="http://purl.org/dc/dcmitype/StillImage" /></cc:Work></rdf:RDF></metadata><defs
     id="defs6" /><sodipodi:namedview
     pagecolor="#ffffff"
     bordercolor="#666666"
     borderopacity="1"
     objecttolerance="10"
     gridtolerance="10"
     guidetolerance="10"
     inkscape:pageopacity="0"
     inkscape:pageshadow="2"
     inkscape:window-width="640"
     inkscape:window-height="480"
     id="namedview4" /><g
     id="g10"
     inkscape:groupmode="layer"
     inkscape:label="ink_ext_XXXXXX"
     transform="matrix(1.3333333,0,0,-1.3333333,0,2666.6667)"><g
       id="g12"
       transform="scale(0.1)"><path
         d="M 0,0 H 29525 V 20000 H 0 Z"
         style="fill:#ffffff;fill-opacity:1;fill-rule:nonzero;stroke:none"
         id="path14" /><path
         d="M 27994.9,5952.9 C 27661.3,4227.8 26515.2,3035 26515.2,3035 l -16032.1,-4.7 -4393.98,-1.2 -3089.22,-1 c -313.41,571.4 -463.55,1046 -502.66,1457.7 -9.52,101 -12.51,198 -9.52,291.8 0.11,2.7 0.21,5.4 0.31,8.1 6.52,188 36.73,363 84.44,528.7 56.9,198.3 138.54,383.5 234.46,562.8 22.14,41.4 45.01,82.5 68.5,123.3 136.06,236.4 293.02,464.9 445.23,702.2 h 0.1 c 156.97,244.4 309.17,498.1 428.58,779 55.36,130 103.57,265.7 142.06,409.1 49.57,184.9 83.09,382.3 94.26,596.2 v 0.1 c 4.04,77.3 5.28,156.7 3.32,238.5 v 0.1 c -0.42,17.3 -1.04,34.7 -1.76,52.2 -8.39,212.1 -37.98,439.8 -93.54,686.4 -7.76,34.5 -16.04,69.2 -24.84,104.4 -6,24.3 -12.31,48.9 -18.93,73.6 -47.18,177.5 -86.29,352.3 -117.74,524 -17.29,94.4 -32.08,187.9 -44.71,280.5 v 0.1 c -8.79,64.3 -16.45,128.1 -23.07,191.5 -618.45,5968.9 8342.11,8140.4 11024.51,4000 2072.9,-3199.7 4508.4,-3676.1 5353,-3132.6 1983.3,1276 4686.6,1490.9 7005.2,-1653.5 1035.7,-1404.6 1166.9,-2766.8 947.8,-3899.4"
         style="fill:#dceaff;fill-opacity:1;fill-rule:nonzero;stroke:none"
         id="path16" /><path
         d="m 2994.02,3038.9 h -4.36 C 2677.59,3611 2528.59,4086 2490.42,4497.7 c -9.32,101.1 -12.01,198.1 -8.81,291.9 0.11,2.7 0.22,5.4 0.32,8.1 l 7.76,26.3 c -0.66,-12.7 -1.22,-25.5 -1.66,-38.3 -0.1,-2.7 -0.2,-5.4 -0.31,-8.1 -2.99,-93.8 0,-190.8 9.52,-291.8 38.87,-409.1 187.38,-880.4 496.78,-1446.9 m -202.44,2809.3 11.83,40.2 c 22.25,41.4 45.22,82.3 68.81,123.2 136.58,236 294.06,464.2 446.88,701.1 h 0.11 c 157.48,244 310.31,497.3 430.44,778 55.67,129.8 104.19,265.4 142.99,408.7 16.35,60.5 30.99,122.2 43.7,185.5 -12.94,-66.3 -28,-130.9 -44.94,-194.1 -38.49,-143.4 -86.7,-279.1 -142.06,-409.1 -119.41,-280.9 -271.61,-534.6 -428.58,-779 h -0.1 c -152.21,-237.3 -309.17,-465.8 -445.23,-702.2 -23.49,-40.8 -46.36,-81.9 -68.5,-123.3 -5.16,-9.6 -10.28,-19.3 -15.35,-29"
         style="fill:#e0ecff;fill-opacity:1;fill-rule:nonzero;stroke:none"
         id="path18" /><path
         d="m 6078.87,3032.5 -3084.85,6.4 c -309.4,566.5 -457.91,1037.8 -496.78,1446.9 -9.52,101 -12.51,198 -9.52,291.8 0.11,2.7 0.21,5.4 0.31,8.1 0.44,12.8 1,25.6 1.66,38.3 l 301.89,1024.2 c 5.07,9.7 10.19,19.4 15.35,29 22.14,41.4 45.01,82.5 68.5,123.3 136.06,236.4 293.02,464.9 445.23,702.2 h 0.1 c 156.97,244.4 309.17,498.1 428.58,779 55.36,130 103.57,265.7 142.06,409.1 16.94,63.2 32,127.8 44.94,194.1 26.16,130.2 44.15,266.6 52.01,410.5 v 0.1 c 4.25,77.3 5.59,156.7 3.83,238.5 v 0.1 c -0.31,17.3 -0.93,34.7 -1.65,52.2 167.72,250.7 351.9,512.1 529.15,736.9 v 0.1 c 271.25,344 526.16,601.7 681.27,601.7 0.38,0 0.74,0 1.12,0 245.22,-2 463.75,-587.2 681.45,-1096.1 167.69,-391.9 334.77,-738.5 513.14,-738.5 29.87,0 60.05,9.7 90.61,30.6 289.51,197.7 769.62,1570 1261,2504.7 l 0.1,0.1 v 0.1 c 263.73,501.6 530.76,877.2 773.16,877.2 7.53,0 15.04,-0.4 22.53,-1.1 183.45,-17.9 374.46,-234.9 570.74,-551.8 l 0.11,-0.1 C 9664.85,10261.8 10256.2,8588.3 10836.2,8310.6 11623,7934 12567.7,3059.5 12567.7,3059.5 l -6488.83,-27 m 3781.32,3654.8 v 0 c 46.11,-92.3 142.11,-155.8 251.81,-155.8 h 90 c 154.2,0 281.3,126.3 281.3,281.3 v 502.1 0 c 0,52.9 -15.1,102.1 -40.8,144.4 v 0.8 c -50,81.6 -139.2,136.1 -240.5,136.1 h -90 c -155.02,0 -281.32,-127.1 -281.32,-281.3 v -502.1 c 0,-44.6 10.6,-87.7 29.51,-125.5 v 0 m -1338.6,5015.8 c -242.44,0 -509.48,-375.6 -773.19,-877.2 v -0.1 c 8.37,6.9 364.29,297.2 480.02,297.2 14.7,0 25.53,-4.7 31.28,-15.2 38.47,-70.7 163.27,-230.9 280.22,-230.9 39.64,0 78.41,18.4 112.57,65 98.73,134.6 209.96,269.4 328.73,269.4 43.58,0 88.19,-18.2 133.55,-61.2 v 0 0 c -196.25,317 -387.26,533.9 -570.67,551.9 -7.49,0.7 -14.97,1.1 -22.51,1.1"
         style="fill:#cfe1ff;fill-opacity:1;fill-rule:nonzero;stroke:none"
         id="path20" /><path
         d="m 27994.9,5952.9 c -133.4,-689.9 -396.7,-1294.6 -664.8,-1772 l -0.1,-0.3 C 26927.9,3464.4 26515.2,3035 26515.2,3035 l -2805.4,-0.9 -20709.9,-6 c -313.41,571.4 -463.55,1046 -502.66,1457.7 -9.52,101 -12.52,198 -9.52,291.8 6,191.1 36.32,368.7 84.75,536.8 70.04,244 177.55,468.3 302.95,686.1 506.49,-1 1442.7,-72.1 2413.25,-499 1438.86,-632.9 3104.84,-1611.4 6643.73,-950.6 3538.8,660.9 6314.6,1566.6 8000.1,803.3 1685.5,-763.3 3486.1,-827.7 4665.7,-81.5 979.9,619.8 2445,1033 3396.7,680.2"
         style="fill:#aecbf4;fill-opacity:1;fill-rule:nonzero;stroke:none"
         id="path22" /><path
         d="m 13086.9,11147 c 0,108.9 -88.3,197.2 -197.2,197.2 -108.9,0 -197.2,-88.3 -197.2,-197.2 0,-108.9 88.3,-197.2 197.2,-197.2 108.9,0 197.2,88.3 197.2,197.2"
         style="fill:#415da5;fill-opacity:1;fill-rule:nonzero;stroke:none"
         id="path24" /><path
         d="m 12911.2,11155.9 334.2,931.5 -25.1,9 -334.3,-931.5 25.2,-9"
         style="fill:#415da5;fill-opacity:1;fill-rule:nonzero;stroke:none"
         id="path26" /><path
         d="m 13833.7,10726.9 10.6,24.6 -945.8,406.3 -621.8,888.3 -21.9,-15.4 626.1,-894.4 3.5,-1.6 949.3,-407.8"
         style="fill:#415da5;fill-opacity:1;fill-rule:nonzero;stroke:none"
         id="path28" /><path
         d="m 13264.7,10120 25.4,8.4 c -6.7,20.1 -372.4,982.4 -387.9,1023.4 l -9.5,25 -589.2,-931.8 22.6,-14.3 560.6,886.6 c 133.9,-352.5 372.9,-982 378,-997.3"
         style="fill:#415da5;fill-opacity:1;fill-rule:nonzero;stroke:none"
         id="path30" /><path
         d="m 12891.9,11200.7 1049.6,180.5 -4.5,26.4 -1049.6,-180.5 4.5,-26.4"
         style="fill:#415da5;fill-opacity:1;fill-rule:nonzero;stroke:none"
         id="path32" /><path
         d="m 12810.1,11216.3 25.4,8.5 -307.5,922.6 -25.4,-8.5 307.5,-922.6"
         style="fill:#415da5;fill-opacity:1;fill-rule:nonzero;stroke:none"
         id="path34" /><path
         d="m 12891.8,11133.1 3.9,2 962.7,488 -12.1,23.9 -958.7,-486.1 -1031.9,173.1 -4.4,-26.3 1040.5,-174.6"
         style="fill:#415da5;fill-opacity:1;fill-rule:nonzero;stroke:none"
         id="path36" /><path
         d="m 12501.3,10153.4 c 5.7,16.8 252.7,624.6 391,964.6 l 534.3,-840.5 22.6,14.3 -562.1,884.3 -9.8,-24 c -16.1,-39.6 -394.7,-970 -401.4,-990.2 l 25.4,-8.5"
         style="fill:#415da5;fill-opacity:1;fill-rule:nonzero;stroke:none"
         id="path38" /><path
         d="m 13923.9,10980 4,26.5 -1036.2,153.8 -4,-26.5 1036.2,-153.8"
         style="fill:#415da5;fill-opacity:1;fill-rule:nonzero;stroke:none"
         id="path40" /><path
         d="m 12953.3,11285.3 574.9,661.9 -20.2,17.5 -574.9,-661.8 20.2,-17.6"
         style="fill:#415da5;fill-opacity:1;fill-rule:nonzero;stroke:none"
         id="path42" /><path
         d="m 12923.2,10103 26.6,2.2 -80.2,969.4 -26.7,-2.2 80.3,-969.4"
         style="fill:#415da5;fill-opacity:1;fill-rule:nonzero;stroke:none"
         id="path44" /><path
         d="m 12028.2,10554.4 915.9,635.1 -15.2,22 -915.9,-635.1 15.2,-22"
         style="fill:#415da5;fill-opacity:1;fill-rule:nonzero;stroke:none"
         id="path46" /><path
         d="m 13649,10429 19,18.8 -764.9,771.6 v 1004 h -26.8 v -1015 L 13649,10429"
         style="fill:#415da5;fill-opacity:1;fill-rule:nonzero;stroke:none"
         id="path48" /><path
         d="m 11893.6,11147 c 0,-176.1 46.5,-349.1 134.6,-500.3 86.2,-148.1 209.9,-272.3 357.6,-359.1 152.1,-89.4 326.4,-136.7 503.9,-136.7 549.2,0 996.1,446.9 996.1,996.1 0,549.3 -446.9,996.1 -996.1,996.1 -549.3,0 -996.1,-446.8 -996.1,-996.1 z m 411,-997.8 c -171.5,100.8 -315,244.9 -415.1,416.7 -102.3,175.8 -156.4,376.7 -156.4,581.1 0,637.8 518.9,1156.6 1156.6,1156.6 637.7,0 1156.5,-518.8 1156.5,-1156.6 0,-637.7 -518.8,-1156.5 -1156.5,-1156.5 -206.1,0 -408.4,54.9 -585.1,158.7"
         style="fill:#2c3a64;fill-opacity:1;fill-rule:nonzero;stroke:none"
         id="path50" /><path
         d="m 15124.1,10968.3 679.7,2125.9 -114.6,36.6 -679.7,-2125.9 114.6,-36.6"
         style="fill:#739cf3;fill-opacity:1;fill-rule:nonzero;stroke:none"
         id="path52" /><path
         d="m 15181.2,10962.3 1604.2,139.5 -2975.1,2011.5 170.2,-348.4 2456.3,-1572.6 -1266,-110.1 10.4,-119.9"
         style="fill:#739cf3;fill-opacity:1;fill-rule:nonzero;stroke:none"
         id="path54" /><path
         d="m 14965,11056.5 101.1,65.2 -1234.4,1977.4 -143.7,-148.7 1277,-1893.9"
         style="fill:#739cf3;fill-opacity:1;fill-rule:nonzero;stroke:none"
         id="path56" /><path
         d="m 12985.5,11200.1 687.5,1471.2 -92.1,36.8 c -59.9,24 -127.8,-5.2 -151.6,-65.2 l -555.2,-1397.4 111.4,-45.4"
         style="fill:#415da5;fill-opacity:1;fill-rule:nonzero;stroke:none"
         id="path58" /><path
         d="m 13673,12671.3 c 99.5,258.1 265.5,663.6 262.9,659.6 l -100.2,66.8 c -4.9,-7.4 -8.1,-12.3 -269,-689.2 l 106.3,-37.2"
         style="fill:#415da5;fill-opacity:1;fill-rule:nonzero;stroke:none"
         id="path60" /><path
         d="m 14250,13190 c 39.4,54.7 27,131 -27.8,170.4 -54.7,39.3 -130.9,26.9 -170.3,-27.8 -39.4,-54.7 -26.9,-131 27.8,-170.4 54.7,-39.3 131,-26.9 170.3,27.8"
         style="fill:#415da5;fill-opacity:1;fill-rule:nonzero;stroke:none"
         id="path62" /><path
         d="m 13788,13509.6 c 39.3,54.7 26.9,131 -27.8,170.3 -54.7,39.4 -131,27 -170.4,-27.8 -39.3,-54.7 -26.9,-130.9 27.8,-170.3 54.7,-39.4 131,-26.9 170.4,27.8"
         style="fill:#415da5;fill-opacity:1;fill-rule:nonzero;stroke:none"
         id="path64" /><path
         d="m 13668.9,13466.3 466.2,-296.7 64.6,127.3 -466.1,296.7 -64.7,-127.3"
         style="fill:#415da5;fill-opacity:1;fill-rule:nonzero;stroke:none"
         id="path66" /><path
         d="m 14436.2,10679.1 h 260.7 c 30.7,0 55.7,25 55.7,55.7 0,30.6 -25,55.7 -55.7,55.7 h -260.7 c -30.6,0 -55.7,-25.1 -55.7,-55.7 0,-30.7 25.1,-55.7 55.7,-55.7"
         style="fill:#415da5;fill-opacity:1;fill-rule:nonzero;stroke:none"
         id="path68" /><path
         d="m 14564,10746.9 528.1,240.7 -19.4,42.6 -528.1,-240.7 19.4,-42.6"
         style="fill:#415da5;fill-opacity:1;fill-rule:nonzero;stroke:none"
         id="path70" /><path
         d="m 16808.3,11147 c 0,108.9 -88.3,197.2 -197.2,197.2 -108.9,0 -197.2,-88.3 -197.2,-197.2 0,-108.9 88.3,-197.2 197.2,-197.2 108.9,0 197.2,88.3 197.2,197.2"
         style="fill:#415da5;fill-opacity:1;fill-rule:nonzero;stroke:none"
         id="path72" /><path
         d="m 16632.6,11155.9 334.3,931.5 -25.2,9 -334.3,-931.5 25.2,-9"
         style="fill:#415da5;fill-opacity:1;fill-rule:nonzero;stroke:none"
         id="path74" /><path
         d="m 17555.1,10726.9 10.6,24.6 -945.8,406.3 -621.8,888.3 -21.9,-15.4 626.1,-894.4 3.5,-1.6 949.3,-407.8"
         style="fill:#415da5;fill-opacity:1;fill-rule:nonzero;stroke:none"
         id="path76" /><path
         d="m 16986.2,10120 25.4,8.4 c -6.7,20.1 -372.4,982.4 -388,1023.4 l -9.5,25 -589.2,-931.8 22.6,-14.3 560.6,886.6 c 134,-352.5 373,-982 378.1,-997.3"
         style="fill:#415da5;fill-opacity:1;fill-rule:nonzero;stroke:none"
         id="path78" /><path
         d="m 16613.4,11200.7 1049.6,180.5 -4.6,26.4 -1049.5,-180.5 4.5,-26.4"
         style="fill:#415da5;fill-opacity:1;fill-rule:nonzero;stroke:none"
         id="path80" /><path
         d="m 16531.6,11216.3 25.4,8.5 -307.6,922.6 -25.3,-8.5 307.5,-922.6"
         style="fill:#415da5;fill-opacity:1;fill-rule:nonzero;stroke:none"
         id="path82" /><path
         d="m 16613.2,11133.1 4,2 962.6,488 -12.1,23.9 -958.7,-486.1 -1031.9,173.1 -4.4,-26.3 1040.5,-174.6"
         style="fill:#415da5;fill-opacity:1;fill-rule:nonzero;stroke:none"
         id="path84" /><path
         d="m 16222.7,10153.4 c 5.7,16.8 252.7,624.6 391,964.6 l 534.3,-840.5 22.6,14.3 -562.1,884.3 -9.8,-24 c -16.1,-39.6 -394.6,-970 -401.4,-990.2 l 25.4,-8.5"
         style="fill:#415da5;fill-opacity:1;fill-rule:nonzero;stroke:none"
         id="path86" /><path
         d="m 17645.4,10980 3.9,26.5 -1036.2,153.8 -3.9,-26.5 1036.2,-153.8"
         style="fill:#415da5;fill-opacity:1;fill-rule:nonzero;stroke:none"
         id="path88" /><path
         d="m 16674.7,11285.3 574.9,661.9 -20.2,17.5 -574.9,-661.8 20.2,-17.6"
         style="fill:#415da5;fill-opacity:1;fill-rule:nonzero;stroke:none"
         id="path90" /><path
         d="m 16644.6,10103 26.6,2.2 -80.2,969.4 -26.6,-2.2 80.2,-969.4"
         style="fill:#415da5;fill-opacity:1;fill-rule:nonzero;stroke:none"
         id="path92" /><path
         d="m 15749.7,10554.4 915.8,635.1 -15.2,22 -915.9,-635.1 15.3,-22"
         style="fill:#415da5;fill-opacity:1;fill-rule:nonzero;stroke:none"
         id="path94" /><path
         d="m 17370.4,10429 19,18.8 -764.9,771.6 v 1004 h -26.7 v -1015 l 772.6,-779.4"
         style="fill:#415da5;fill-opacity:1;fill-rule:nonzero;stroke:none"
         id="path96" /><path
         d="m 15615,11147 c 0,-176.1 46.6,-349.1 134.6,-500.3 86.2,-148.1 209.9,-272.3 357.7,-359.1 152.1,-89.4 326.3,-136.7 503.8,-136.7 549.3,0 996.1,446.9 996.1,996.1 0,549.3 -446.8,996.1 -996.1,996.1 -549.2,0 -996.1,-446.8 -996.1,-996.1 z m 411,-997.8 c -171.5,100.8 -315,244.9 -415,416.7 -102.3,175.8 -156.4,376.7 -156.4,581.1 0,637.8 518.8,1156.6 1156.5,1156.6 637.7,0 1156.6,-518.8 1156.6,-1156.6 0,-637.7 -518.9,-1156.5 -1156.6,-1156.5 -206,0 -408.4,54.9 -585.1,158.7"
         style="fill:#2c3a64;fill-opacity:1;fill-rule:nonzero;stroke:none"
         id="path98" /><path
         d="m 15668.6,12333.7 c 17,-5.9 35.7,-4 51.1,5.3 541.1,326.9 1289.8,204.1 1506.4,158.6 l 0.3,-0.1 c 11.9,-2.5 23.2,6.6 23.2,18.8 v 42.3 c 0,32.4 -23.7,59.8 -55.7,64.6 -117.2,17.4 -390.9,54.9 -543.8,55.6 -4.1,0 -8.2,0 -12.3,0 -342.6,0 -638.4,-61.3 -881.5,-182.5 -49.6,-24.7 -107.1,-28.2 -159.5,-9.8 l -66.7,23.4 c -38.1,13.4 -79.8,-6.6 -93.2,-44.7 -8.6,-24.6 4.3,-51.6 28.9,-60.2 l 202.8,-71.3"
         style="fill:#d57912;fill-opacity:1;fill-rule:nonzero;stroke:none"
         id="path100" /><path
         d="m 16171.6,13157.6 c 0,0 21.7,98.6 -40.1,105.3 -61.9,6.7 -287.5,-41.8 -347.7,-35.1 -60.1,6.7 -374.3,58.5 -429.5,5 -55.1,-53.5 -31.8,-100.3 78.6,-110.3 110.3,-10 257.3,-28.4 299.1,-63.5 41.8,-35.1 344.3,-138.7 439.6,98.6"
         style="fill:#415da5;fill-opacity:1;fill-rule:nonzero;stroke:none"
         id="path102" /><path
         d="m 15367.7,10986.6 c 0,166.1 -134.7,300.8 -300.9,300.8 -166.1,0 -300.8,-134.7 -300.8,-300.8 0,-166.2 134.7,-300.8 300.8,-300.8 166.2,0 300.9,134.6 300.9,300.8"
         style="fill:#2c3a64;fill-opacity:1;fill-rule:nonzero;stroke:none"
         id="path104" /><path
         d="m 21672.7,9990.5 h -60.2 v 139 c 0,186.5 -151.7,338.2 -338.2,338.2 h -8672.9 c -186.5,0 -338.2,-151.7 -338.2,-338.2 v -89.2 h -60.1 v 89.2 c 0,219.6 178.7,398.3 398.3,398.3 h 8672.9 c 219.7,0 398.4,-178.7 398.4,-398.3 v -139"
         style="fill:#2c3a64;fill-opacity:1;fill-rule:nonzero;stroke:none"
         id="path106" /><path
         d="m 13330,10040.4 h 2008.6 v 1656.2 H 13330 v -1656.2"
         style="fill:#d3671e;fill-opacity:1;fill-rule:nonzero;stroke:none"
         id="path108" /><path
         d="m 14334.3,10040.4 h 2008.5 v 1656.2 h -2008.5 v -1656.2"
         style="fill:#f1a34f;fill-opacity:1;fill-rule:nonzero;stroke:none"
         id="path110" /><path
         d="m 13331.2,10460.4 h 318.3 l -28.1,89.6 28.1,64 h -318.3 v -153.6"
         style="fill:#f1a34f;fill-opacity:1;fill-rule:nonzero;stroke:none"
         id="path112" /><path
         d="m 15396.4,10033.9 h -131.7 v 1662.7 h 131.7 v -1662.7"
         style="fill:#e58628;fill-opacity:1;fill-rule:nonzero;stroke:none"
         id="path114" /><path
         d="M 14331.5,10809.1 H 13330 v 130.5 h 1001.5 v -130.5"
         style="fill:#c15911;fill-opacity:1;fill-rule:nonzero;stroke:none"
         id="path116" /><path
         d="m 16357.2,10809.1 h -2022.9 v 130.5 h 2022.9 v -130.5"
         style="fill:#e58628;fill-opacity:1;fill-rule:nonzero;stroke:none"
         id="path118" /><path
         d="M 15089.5,12614.3 V 11693 h -1117.1 v 921.3 h 1117.1"
         style="fill:#d3671e;fill-opacity:1;fill-rule:nonzero;stroke:none"
         id="path120" /><path
         d="M 15648.1,12614.3 V 11693 h -1117.2 v 921.3 h 1117.2"
         style="fill:#f1a34f;fill-opacity:1;fill-rule:nonzero;stroke:none"
         id="path122" /><path
         d="m 13973,11926.7 h 177 l -15.6,49.8 15.6,35.6 h -177 v -85.4"
         style="fill:#f1a34f;fill-opacity:1;fill-rule:nonzero;stroke:none"
         id="path124" /><path
         d="m 15121.7,11689.4 h -73.3 v 924.9 h 73.3 v -924.9"
         style="fill:#e58628;fill-opacity:1;fill-rule:nonzero;stroke:none"
         id="path126" /><path
         d="m 14529.4,12120.6 h -557.1 v 72.6 h 557.1 v -72.6"
         style="fill:#c15911;fill-opacity:1;fill-rule:nonzero;stroke:none"
         id="path128" /><path
         d="m 15656.1,12120.6 h -1125.2 v 72.6 h 1125.2 v -72.6"
         style="fill:#e58628;fill-opacity:1;fill-rule:nonzero;stroke:none"
         id="path130" /><path
         d="m 15948.5,10055.2 -126.4,-28.6 -406.5,1666.4 -8.7,36 -265.4,391.7 -19.8,29.2 -29.4,43.3 -2.8,4.1 -41.1,60.7 -241.4,356.3 h 154.8 l 86.6,-127.8 41.1,-60.7 32.2,-47.4 125.4,-185.2 49.2,-72.5 231.7,-341.9 2.6,-10.7 18.3,-75.1 399.6,-1637.8"
         style="fill:#2c3a64;fill-opacity:1;fill-rule:nonzero;stroke:none"
         id="path132" /><path
         d="m 21507.3,10162.2 c -44.9,-6.3 -90,-12.4 -135.4,-18 -150.1,-19 -303.2,-34.6 -458.4,-46.3 -46.6,-3.5 -93.2,-6.6 -140.1,-9.4 -223,-13.1 -449.3,-17.6 -675.8,-11.2 -239.3,6.6 -472.7,19.9 -698,39 -51.4,4.3 -102.3,9 -152.7,14 -1509.1,147.8 -2618,559.2 -2605.4,1011.9 9.6,343.4 662.3,627 1638.3,771.5 44.1,6.6 89,12.9 134.4,18.8 l 0.5,0.1 c 396.2,51.9 840.4,81.7 1313,84.4 48.1,0.2 96.5,0.2 145.2,-0.1 92.1,-0.5 185,-2.1 278.8,-4.7 71.1,-2 141.7,-5.1 212.3,-9.3 50.4,-2.9 100.7,-6.5 150.8,-10.4 1776.9,-141.8 3326.2,-916.8 3364.4,-1052.9 40.4,-144 -1025,-587.5 -2371.9,-777.4"
         style="fill:#abddda;fill-opacity:1;fill-rule:nonzero;stroke:none"
         id="path134" /><path
         d="m 23879.2,10939.6 -2836.5,79.4 -147.4,4.1 -490.9,13.8 -147.5,4.1 -1379.7,38.7 -147.4,4.1 -2088.3,58.4 c 9.6,343.4 662.3,627 1638.3,771.5 44.1,6.6 89,12.9 134.4,18.8 l 0.5,0.1 c 396.2,51.9 840.4,81.7 1313,84.4 48.1,0.2 96.5,0.2 145.2,-0.1 92.1,-0.5 185,-2.1 278.8,-4.7 71.1,-2 141.7,-5.1 212.3,-9.3 50.4,-2.9 100.7,-6.5 150.8,-10.4 1776.9,-141.8 3326.2,-916.8 3364.4,-1052.9"
         style="fill:#91cecf;fill-opacity:1;fill-rule:nonzero;stroke:none"
         id="path136" /><path
         d="m 18279.8,11913.7 450,-829.9 23.2,-42.8 493.9,-910.7 22.6,-41.8 68.5,-126.4 113,59.5 -41.4,76.3 -10,18.4 -499.2,920.6 -23.2,42.8 -462.5,852.9 -134.9,-18.9"
         style="fill:#2c3a64;fill-opacity:1;fill-rule:nonzero;stroke:none"
         id="path138" /><path
         d="m 21583.6,10021.6 -113,-59.5 -68.6,126.4 -30.1,55.7 -476.6,878.9 -9.7,17.9 -521.6,961.9 c 50.4,-2.9 100.7,-6.5 150.8,-10.4 l 518.2,-955.6 9.7,-17.9 464.6,-856.8 34.8,-64.3 41.5,-76.3"
         style="fill:#2c3a64;fill-opacity:1;fill-rule:nonzero;stroke:none"
         id="path140" /><path
         d="m 12685.3,12995.5 -4151.47,31.1 c 0,0 186.33,251.2 627.94,251.2 24.55,0 49.84,-0.8 75.99,-2.5 0,0 350.81,227.1 823.84,227.1 205,0 432.9,-42.6 665.3,-164.9 0,0 218.6,26.8 513.5,26.8 275,0 616.3,-23.3 908.3,-113.5 403.3,-124.6 536.6,-255.3 536.6,-255.3"
         style="fill:#f0f7ff;fill-opacity:1;fill-rule:nonzero;stroke:none"
         id="path142" /><path
         d="m 11398.5,14238.3 -5910.34,40.7 c 0,0 265.28,328.9 894,328.9 34.96,0 70.96,-1 108.18,-3.2 0,0 499.44,297.3 1172.86,297.3 291.88,0 616.33,-55.8 947.14,-215.8 0,0 311.28,35.1 730.99,35.1 391.58,0 877.57,-30.6 1293.27,-148.7 574.2,-163.2 763.9,-334.3 763.9,-334.3"
         style="fill:#f0f7ff;fill-opacity:1;fill-rule:nonzero;stroke:none"
         id="path144" /><path
         d="m 10196.6,15516 c 0,158.3 128.3,286.7 286.7,286.7 158.3,0 286.7,-128.4 286.7,-286.7 0,-158.4 -128.4,-286.7 -286.7,-286.7 -158.4,0 -286.7,128.3 -286.7,286.7"
         style="fill:#f8fbff;fill-opacity:1;fill-rule:nonzero;stroke:none"
         id="path146" /><path
         d="M 10483.3,3028.1 H 2999.9 c -313.41,571.4 -463.55,1046 -502.66,1457.7 -9.52,101 -12.52,198 -9.52,291.8 6,191.1 36.32,368.7 84.75,536.8 70.04,244 177.55,468.3 302.95,686.1 136.07,236.4 293.04,464.9 445.24,702.2 h 0.1 c 0,0 863.67,539 2043.23,216.5 1179.57,-322.4 658.49,-1079.3 891.2,-1417.7 232.81,-338.5 605.3,-140 1164.04,-378.9 558.74,-238.9 434.58,-1341.9 651.86,-1403.5 216.98,-61.3 2367.31,-63.3 2412.01,-688.8 l 0.2,-2.2"
         style="fill:#a8d29f;fill-opacity:1;fill-rule:nonzero;stroke:none"
         id="path148" /><path
         d="m 9830.68,7314.9 v -502.1 c 0,-44.6 10.6,-87.7 29.51,-125.5 46.11,-92.3 142.11,-155.8 251.81,-155.8 h 90 c 154.2,0 281.3,126.3 281.3,281.3 v 502.1 c 0,52.9 -15.1,102.1 -40.8,144.4 v 0.8 c -50,81.6 -139.2,136.1 -240.5,136.1 h -90 c -155.02,0 -281.32,-127.1 -281.32,-281.3"
         style="fill:#2b478b;fill-opacity:1;fill-rule:nonzero;stroke:none"
         id="path150" /><path
         d="m 10202,6531.5 h -90 c -109.7,0 -205.7,63.5 -251.81,155.8 457.51,52.1 576.91,741 582.31,772 25.7,-42.3 40.8,-91.5 40.8,-144.4 v -502.1 c 0,-155 -127.1,-281.3 -281.3,-281.3"
         style="fill:#2b478b;fill-opacity:1;fill-rule:nonzero;stroke:none"
         id="path152" /><path
         d="m 14290.3,3639.8 h -1390.5 v 1403.4 h 1450.6 l -60.1,-1403.4"
         style="fill:#0c2544;fill-opacity:1;fill-rule:nonzero;stroke:none"
         id="path154" /><path
         d="M 10080,6828.4 16737.2,6438 v 3602.4 h -4486 c -427.7,0 -819.3,-239.4 -1014.3,-620 l -293.6,-573 -863.3,-2019"
         style="fill:#ce631b;fill-opacity:1;fill-rule:nonzero;stroke:none"
         id="path156" /><path
         d="m 13786.6,3868.2 c 0,-381 -196.5,-801.2 -196.5,-801.2 0,0 -292.1,0 -332.7,0 -292.2,0 -529.1,358.7 -529.1,801.2 0,442.4 569.6,801.1 861.8,801.1 292.3,0 196.5,-358.7 196.5,-801.1"
         style="fill:#163560;fill-opacity:1;fill-rule:nonzero;stroke:none"
         id="path158" /><path
         d="m 14119.3,3868.2 c 0,-442.5 -236.9,-801.2 -529.2,-801.2 -292.2,0 -529.2,358.7 -529.2,801.2 0,442.4 237,801.1 529.2,801.1 292.3,0 529.2,-358.7 529.2,-801.1"
         style="fill:#2b478b;fill-opacity:1;fill-rule:nonzero;stroke:none"
         id="path160" /><path
         d="m 13851.4,3868.2 c 0,-224.1 -120,-405.7 -268,-405.7 -148,0 -267.9,181.6 -267.9,405.7 0,224 119.9,405.7 267.9,405.7 148,0 268,-181.7 268,-405.7"
         style="fill:#dfebfd;fill-opacity:1;fill-rule:nonzero;stroke:none"
         id="path162" /><path
         d="m 9961.57,3868.2 c 0,-381 -196.52,-801.2 -196.52,-801.2 0,0 -292.07,0 -332.67,0 -292.26,0 -529.18,358.7 -529.18,801.2 0,442.4 569.59,801.1 861.85,801.1 292.25,0 196.52,-358.7 196.52,-801.1"
         style="fill:#163560;fill-opacity:1;fill-rule:nonzero;stroke:none"
         id="path164" /><path
         d="m 10294.2,3868.2 c 0,-442.5 -236.9,-801.2 -529.15,-801.2 -292.26,0 -529.18,358.7 -529.18,801.2 0,442.4 236.92,801.1 529.18,801.1 292.25,0 529.15,-358.7 529.15,-801.1"
         style="fill:#163560;fill-opacity:1;fill-rule:nonzero;stroke:none"
         id="path166" /><path
         d="m 18745.4,3868.2 c 0,-381 -196.5,-801.2 -196.5,-801.2 0,0 -292,0 -332.6,0 -292.3,0 -529.2,358.7 -529.2,801.2 0,442.4 569.6,801.1 861.8,801.1 292.3,0 196.5,-358.7 196.5,-801.1"
         style="fill:#163560;fill-opacity:1;fill-rule:nonzero;stroke:none"
         id="path168" /><path
         d="m 19078.1,3868.2 c 0,-442.5 -236.9,-801.2 -529.2,-801.2 -292.2,0 -529.1,358.7 -529.1,801.2 0,442.4 236.9,801.1 529.1,801.1 292.3,0 529.2,-358.7 529.2,-801.1"
         style="fill:#163560;fill-opacity:1;fill-rule:nonzero;stroke:none"
         id="path170" /><path
         d="m 8376.29,4327.7 c -0.76,-335 270.72,-606.4 604.95,-606.4 h 3918.56 c -11.3,65.7 -17.4,133.8 -17.4,204.1 0,518 310.8,938.5 693.4,938.5 383.4,0 694.2,-420.5 694.2,-938.5 0,-70.3 6.2,-131.6 -5.1,-197.4 l 2278.2,-6.7 c 0,0 92.3,1022.3 80.9,1535 -9.1,446.2 -9.1,1320.3 17.4,1533.6 0,31.7 -2208,35.5 -2765.4,37.8 -75.6,0.7 -121,0.7 -125.5,0.7 l -7.6,-5.3 -8.3,-6 c -102.8,-71.8 -679,-475.7 -1036.7,-712.3 -315.3,-208 -2642.9,-292.7 -3555.59,-318.4 -226.86,-6 -366.75,-8.3 -366.75,-8.3 0,0 -124.77,-127.8 -235.17,-329.7 -84.7,-156.5 -160.32,-357.7 -161.83,-577.7 -0.76,-136.9 -1.51,-301.8 -1.51,-463.6 -0.76,-26.4 -0.76,-52.9 -0.76,-79.4"
         style="fill:#ff9843;fill-opacity:1;fill-rule:nonzero;stroke:none"
         id="path172" /><path
         d="m 10456.6,6747 3050.5,65.7 c 71,0 112.6,3.1 142.1,67.3 l 802.3,1663.7 c 25,55.2 -15.9,118 -76.4,118 h -3238.7 c -71.1,0 -136.1,-42.4 -164.9,-108.2 L 10427.1,7309.6 10291,6998.8 c -51.5,-118.7 35.5,-251.8 165.6,-251.8"
         style="fill:#dceaff;fill-opacity:1;fill-rule:nonzero;stroke:none"
         id="path174" /><path
         d="m 16035.4,10040.4 v -6401 H 22674 v 6401 h -6638.6"
         style="fill:#ed7d2b;fill-opacity:1;fill-rule:nonzero;stroke:none"
         id="path176" /><path
         d="m 11886.5,4325.7 c 0.8,-53 3,-102.9 6.1,-147.5 21.9,-294.1 317.6,-538.4 317.6,-538.4 h 689.6 c -11.3,65.8 -17.4,133.9 -17.4,204.2 0,176.2 36.3,341 98.3,481.7 121.8,273.7 342.6,456.7 595.1,456.7 253.4,0 474.2,-183 595.9,-456.7 62,-140.7 98.3,-305.5 98.3,-481.7 0,-70.3 -5.3,-138.4 -16.6,-204.2 h 2484.1 v 6400.4 H 14743.4 V 8769.8 c 0,0 -598.2,-1405 -867.4,-2023.6 -66.5,-154.2 -113.4,-259.3 -125.5,-282 -59.7,-114.2 -1449.6,-817.5 -1679.5,-1024.6 -127.8,-115 -191.3,-712.4 -184.5,-1113.9"
         style="fill:#ed7d2b;fill-opacity:1;fill-rule:nonzero;stroke:none"
         id="path178" /><path
         d="m 14721.1,8357.5 -621.9,-1531.7 c -15.3,-37.8 12.5,-79.1 53.2,-79.1 h 1036.8 c 0,0 230.2,38.6 259.7,509 31.5,502.2 31.5,1368.8 31.5,1368.8 l -492.6,2.4 c -187.7,-28.4 -217.1,-131.5 -266.7,-269.4"
         style="fill:#aec3ff;fill-opacity:1;fill-rule:nonzero;stroke:none"
         id="path180" /><path
         d="m 14995.1,8585.4 c -3,0 -5.7,-0.2 -8.2,-0.6 -149.5,-24.8 -176.4,-100.1 -220.9,-224.8 l -6.6,-18.1 -602.6,-1484.4 c -6.4,-15.8 -4.7,-33 4.9,-47.1 9.5,-14.2 24.8,-22.3 41.8,-22.3 h 972.8 c 6.3,0 12.3,1.1 17.8,3.3 44.3,17.1 190.6,101.2 213.5,466.9 25,398.5 30.1,1024.2 31.1,1274.6 0.1,27.8 -22.4,50.5 -50.2,50.7 l -393.1,1.8 z m 181.2,-1880.1 h -972.8 c -44.4,0 -85.7,22 -110.5,58.9 -24.8,36.8 -29.6,83.3 -12.9,124.5 l 602.3,1483.6 5.6,15.6 c 47.2,131.9 87.9,245.8 285.3,278.6 7.2,1.2 14.9,1.7 22.6,1.7 l 393,-1.9 c 73.4,-0.3 132.9,-60.3 132.6,-133.7 -1,-251.2 -6.1,-878.8 -31.3,-1279.5 -25.3,-403.5 -194.6,-511.3 -266.3,-539 -15.1,-5.8 -31.1,-8.8 -47.6,-8.8"
         style="fill:#163560;fill-opacity:1;fill-rule:nonzero;stroke:none"
         id="path182" /><path
         d="m 8775.56,5778.1 h 3638.74 l 1328.6,1045 7.6,5.3 H 10080 L 9034.93,5987.6 8775.56,5778.1"
         style="fill:#ff9843;fill-opacity:1;fill-rule:nonzero;stroke:none"
         id="path184" /><path
         d="m 8495.27,5371.6 c 21.17,-34.8 21.08,-38 50.56,-43.3 l 510.43,-94.5 c 43.11,-8.3 76.38,66.6 65.04,143.7 l -49.91,343.3 -1.51,8.3 -9.83,70.3 c -9.07,60.5 -35.54,106.7 -68.05,119.5 l -29.5,11.4 -211.85,-171.1 c -32.39,-26.2 -60.18,-57.5 -82.34,-92.8 -38.03,-60.4 -102.92,-166.6 -173.04,-294.8"
         style="fill:#f9ddbf;fill-opacity:1;fill-rule:nonzero;stroke:none"
         id="path186" /><path
         d="M 14664.6,8847.5 H 22674 v 1192.9 H 14664.6 V 8847.5"
         style="fill:#ce631b;fill-opacity:1;fill-rule:nonzero;stroke:none"
         id="path188" /><path
         d="m 11943.2,5082.6 329,32.5 c 114.9,11.4 207.9,97.6 228.3,211 l 75.7,415.9 c 1.5,6.8 2.2,12.9 1.5,19.7 -234.5,-134.6 -431.8,-254.9 -506.7,-322.1 -54.4,-49.2 -97.5,-185.3 -127.8,-357"
         style="fill:#a8302d;fill-opacity:1;fill-rule:nonzero;stroke:none"
         id="path190" /><path
         d="m 11318.6,5020.6 623.9,62 h 0.7 l 329,32.5 c 114.9,11.4 207.9,97.6 228.3,211 l 75.7,415.9 c 1.5,6.8 2.2,12.9 1.5,19.7 v 0.8 c 3.8,87.7 -76.4,158.7 -166.4,140.6 l -971.7,-197.4 c -62,-12.8 -111.2,-59 -127.8,-119.5 l -114.2,-421.9 c -21.1,-77.1 41.6,-152 121,-143.7"
         style="fill:#f9ddbf;fill-opacity:1;fill-rule:nonzero;stroke:none"
         id="path192" /><path
         d="m 10943.1,8847.5 h 3790.8 c 0,0 14.6,242.5 109.7,519.6 84.7,244.6 231.1,517.5 487.2,673.2 h -3097.7 c -504.9,0 -952.4,-269.7 -1130.1,-673.2 -8.3,-16.7 -15.7,-33.5 -21.9,-50.2 -53.4,-140.1 -101.4,-296.9 -138,-469.4"
         style="fill:#ff9843;fill-opacity:1;fill-rule:nonzero;stroke:none"
         id="path194" /><path
         d="m 11942.5,5082.6 329.7,32.5 c 114.9,11.4 207.9,97.6 228.3,211 l 75.7,415.9 c 1.5,6.8 2.2,13.6 1.5,20.5 -234.5,-135.4 -431.8,-255.7 -506.7,-322.9 -54.4,-49.2 -97.5,-185.3 -128.5,-357"
         style="fill:#e5bd98;fill-opacity:1;fill-rule:nonzero;stroke:none"
         id="path196" /><path
         d="m 8376.29,4246.3 c -0.76,-335 283.57,-606.5 634.44,-606.5 h 3889.07 c -11.3,65.8 -17.4,133.9 -17.4,204.2 0,176.2 36.3,341 98.3,481.7 H 8377.05 c -0.76,-26.5 -0.76,-53 -0.76,-79.4"
         style="fill:#ed7d2b;fill-opacity:1;fill-rule:nonzero;stroke:none"
         id="path198" /><path
         d="M 10938.2,5667.1 H 9450.19 c -47.53,0 -83.87,-64.1 -76.62,-135.2 l 52.82,-517.1 c 7.76,-76.1 51.05,-132.2 101.93,-132.2 h 1225.88 c 78.6,0 148,77.8 170.8,191.6 l 88.3,439.6 c 15.4,76.3 -22.4,153.3 -75.1,153.3"
         style="fill:#ed7d2b;fill-opacity:1;fill-rule:nonzero;stroke:none"
         id="path200" /><path
         d="m 14399.9,7573.8 c 0,0 -56.7,-651 264.7,-829.3 h -478.1 c -58.5,0 -98.4,59.2 -76.4,113.4 l 289.8,715.9"
         style="fill:#163560;fill-opacity:1;fill-rule:nonzero;stroke:none"
         id="path202" /><path
         d="m 14311.7,7138.1 c 0,0 135.6,96.5 147.3,176.5 v -455.3 h -177.5 l 30.2,278.8"
         style="fill:#163560;fill-opacity:1;fill-rule:nonzero;stroke:none"
         id="path204" /><path
         d="m 14459.1,7314.9 v -502.1 c 0,-44.6 10.5,-87.7 29.5,-125.5 46.1,-92.3 142.1,-155.8 251.8,-155.8 h 90 c 154.2,0 281.3,126.3 281.3,281.3 v 502.1 c 0,52.9 -15.2,102.1 -40.9,144.4 v 0.8 c -49.9,81.6 -139.1,136.1 -240.4,136.1 h -90 c -155.1,0 -281.3,-127 -281.3,-281.3"
         style="fill:#2b478b;fill-opacity:1;fill-rule:nonzero;stroke:none"
         id="path206" /><path
         d="m 14488.6,6687.3 c 46.1,-92.3 142.1,-155.8 251.8,-155.8 h 90 c 154.2,0 281.3,126.3 281.3,281.3 v 502.1 c 0,52.9 -15.2,102.1 -40.9,144.4 -5.3,-31 -124.8,-719.9 -582.2,-772"
         style="fill:#163560;fill-opacity:1;fill-rule:nonzero;stroke:none"
         id="path208" /><path
         d="m 20505.8,3639.4 h 1633 c 34.5,147.4 138.3,1197 -776.8,1197 -831.6,0 -892.8,-957.6 -856.2,-1197"
         style="fill:#0c2544;fill-opacity:1;fill-rule:nonzero;stroke:none"
         id="path210" /><path
         d="m 21627.6,3868.2 c 0,-381 -196.5,-801.2 -196.5,-801.2 0,0 -292.1,0 -332.7,0 -292.3,0 -529.2,358.7 -529.2,801.2 0,442.4 569.6,801.1 861.9,801.1 292.2,0 196.5,-358.7 196.5,-801.1"
         style="fill:#163560;fill-opacity:1;fill-rule:nonzero;stroke:none"
         id="path212" /><path
         d="m 21960.3,3868.2 c 0,-442.5 -237,-801.2 -529.2,-801.2 -292.3,0 -529.2,358.7 -529.2,801.2 0,442.4 236.9,801.1 529.2,801.1 292.2,0 529.2,-358.7 529.2,-801.1"
         style="fill:#2b478b;fill-opacity:1;fill-rule:nonzero;stroke:none"
         id="path214" /><path
         d="m 21710,3868.2 c 0,-204.2 -109.3,-369.8 -244.2,-369.8 -134.9,0 -244.2,165.6 -244.2,369.8 0,204.2 109.3,369.7 244.2,369.7 134.9,0 244.2,-165.5 244.2,-369.7"
         style="fill:#dfebfd;fill-opacity:1;fill-rule:nonzero;stroke:none"
         id="path216" /><path
         d="m 10943.1,8847.5 h 3875.5 c 0,0 -70.1,242.5 25,519.6 H 11103 c -8.3,-16.7 -15.7,-33.5 -21.9,-50.2 -53.4,-140.1 -101.4,-296.9 -138,-469.4"
         style="fill:#ed7d2b;fill-opacity:1;fill-rule:nonzero;stroke:none"
         id="path218" /><path
         d="m 18066.8,6747 h -1809.1 c -86.7,0 -157,70.3 -157,157 v 1565.9 c 0,86.7 70.3,157 157,157 h 1809.1 c 86.7,0 157,-70.3 157,-157 V 6904 c 0,-86.7 -70.3,-157 -157,-157"
         style="fill:#aec3ff;fill-opacity:1;fill-rule:nonzero;stroke:none"
         id="path220" /><path
         d="m 20745.5,6747 h -1847 c -76.3,0 -138,61.8 -138,138 v 1603.9 c 0,76.2 61.7,138 138,138 h 1847 c 76.2,0 138,-61.8 138,-138 V 6885 c 0,-76.2 -61.8,-138 -138,-138"
         style="fill:#aec3ff;fill-opacity:1;fill-rule:nonzero;stroke:none"
         id="path222" /><path
         d="m 27330.1,4180.9 -0.1,-0.3 C 26927.9,3464.4 26515.2,3035 26515.2,3035 l -2805.4,-0.9 -491.5,37.4 c 0,0 357,692.8 1148.6,647.2 791.4,-45.5 760.4,393.9 1489.8,686.3 729.5,292.4 1473.4,-224.1 1473.4,-224.1"
         style="fill:#a8d29f;fill-opacity:1;fill-rule:nonzero;stroke:none"
         id="path224" /><path
         d="M 28474.4,3002 H 1506.29 c -16.58,0 -30.15,13.6 -30.15,30.2 v 9.2 c 0,16.5 13.57,30.1 30.15,30.1 H 28474.4 c 16.5,0 30.1,-13.6 30.1,-30.1 v -9.2 c 0,-16.6 -13.6,-30.2 -30.1,-30.2"
         style="fill:#2e3552;fill-opacity:1;fill-rule:nonzero;stroke:none"
         id="path226" /><path
         d="m 7748.4,10825.8 v 0.1 c 263.71,501.6 530.75,877.2 773.19,877.2 7.54,0 15.02,-0.4 22.51,-1.1 183.41,-18 374.42,-234.9 570.67,-551.9 -45.36,43 -89.97,61.2 -133.55,61.2 -118.77,0 -230,-134.8 -328.73,-269.4 -34.16,-46.6 -72.93,-65 -112.57,-65 -116.95,0 -241.75,160.2 -280.22,230.9 -5.75,10.5 -16.58,15.2 -31.28,15.2 -115.73,0 -471.65,-290.3 -480.02,-297.2"
         style="fill:#ecf4ff;fill-opacity:1;fill-rule:nonzero;stroke:none"
         id="path228" /><path
         d="m 5883.52,9028.9 c -211.39,340.7 -505.86,182.2 -754.09,-102.1 -248.33,-284.4 -165.55,560.3 -165.55,684.4 0,124.2 -444.2,-88 -444.2,-88 v 0.1 c 271.92,344.9 527.39,602.9 682.39,601.7 245.22,-2 463.75,-587.2 681.45,-1096.1"
         style="fill:#f8fcff;fill-opacity:1;fill-rule:nonzero;stroke:none"
         id="path230" /><path
         d="m 12504.1,6831.1 h -1706 c 74.2,368.7 204.7,929.2 319.3,969.5 22.1,7.8 55.8,16 98.3,23.8 40.9,7.5 90,14.7 144.6,20.8 111.6,12.4 246.3,20.2 382.1,17.2 129.1,-2.9 259.2,-15.7 371.3,-43.6 117.3,-29.2 214.9,-75.1 271.1,-143.8 63.7,-77.9 97.3,-219.7 112.8,-382.3 1.2,-12.7 2.3,-25.4 3.3,-38.3 4.1,-53.5 6.4,-108.8 7.4,-164.5 0.2,-10.2 0.3,-20.3 0.4,-30.5 0.7,-77.1 -1.2,-154.5 -4.6,-228.3"
         style="fill:#b5453c;fill-opacity:1;fill-rule:nonzero;stroke:none"
         id="path232" /><path
         d="m 13840.4,7853 c -4.8,-0.4 -9.6,-0.8 -14.4,-1.2 -5.2,-0.5 -10.4,-0.9 -15.5,-1.5 -3.2,-0.2 -6.5,-0.5 -9.7,-0.8 -29.5,-2.9 -57.7,-6 -84.2,-9.4 -91,-11.7 -162.6,-26.2 -200.3,-39.5 -31.4,-11 -64,-61.2 -96.4,-135.8 -26.3,-60.7 -52.4,-137.5 -77.5,-222.7 -23.2,-78.9 -45.7,-164.8 -66.6,-251.6 -2,-8.5 -4,-16.9 -6.1,-25.4 -11.2,-47.3 -22,-94.7 -32.2,-141.1 -4,-18.5 -8,-36.8 -11.9,-54.9 -10.3,-47.9 -19.9,-94.3 -28.6,-138 h 329.7 c 71.1,0 135.3,39.8 164.8,101.4 l 132.5,282.3 90.3,192.3 30.4,64.8 16.8,35.8 13.2,28.1 153.4,326.8 c -99.8,1.7 -198.6,-2.3 -287.7,-9.6"
         style="fill:#b5453c;fill-opacity:1;fill-rule:nonzero;stroke:none"
         id="path234" /><path
         d="m 12113.7,7818.8 c -92.3,244.6 -241.8,485 -338.9,535.4 -98.3,50.9 -177,18.9 -177,18.9 -300.5,35.3 -388.1,-315.2 -384.1,-435.8 1.2,-36.6 3.4,-74.1 2,-112.9 -3.1,-88.9 -24.9,-184.8 -118.3,-293.9 -156.3,-182.4 -117.6,-294.6 -15.8,-363.4 35.7,-24.2 79.3,-43.1 124.9,-57.7 16,-5.2 32.3,-9.8 48.6,-14 37.7,-9.7 75.3,-16.9 110,-22.2 87.9,-13.5 156.5,-15.2 156.5,-15.2 4.6,241.3 199.1,262.8 322.3,239.6 25.5,-4.8 48,-11.6 65,-18.7 24.2,-10 37.7,-20.7 34,-27.9 13.9,-3.4 27.2,-5.9 39.8,-7.7 81.5,-11.6 136.2,8.1 169.7,49.6 v 0.1 c 78.5,97 41.6,313.1 -38.7,525.8"
         style="fill:#163560;fill-opacity:1;fill-rule:nonzero;stroke:none"
         id="path236" /><path
         d="m 11291.9,6831.1 h -103.8 c 4.9,4.7 9.9,8.8 15,12.3 15,10.3 30.6,15.1 47.1,12.4 8.5,-1.3 17.4,-4.7 26.4,-10.5 6,-3.9 11.1,-8.7 15.3,-14.2"
         style="fill:#ebeef2;fill-opacity:1;fill-rule:nonzero;stroke:none"
         id="path238" /><path
         d="m 11923.8,6831.1 h -669 c -1.7,8.2 -3.2,16.4 -4.6,24.7 -6.5,39.4 -10,80.3 -7,125.9 2.5,38.4 6.7,76.6 11.9,113.7 26.9,190.5 82.1,353 86.7,366.8 l 0.5,1 c 0,0 24.9,7.1 53.5,15.4 56.1,16.1 94.4,67.6 94.1,126 v 1.6 c -0.1,26.6 -0.9,53.8 -1.9,77 -0.3,6.7 -0.6,13.1 -0.9,18.9 l -0.3,5.7 c -0.1,3.1 -0.3,5.9 -0.4,8.6 0,1 -0.1,2.1 -0.2,3.1 -0.3,5 -0.6,9.4 -0.8,13 0,1 -0.1,1.9 -0.2,2.8 -0.1,1.4 -0.2,2.8 -0.2,3.9 l -0.1,1.4 c -0.2,2.7 -0.3,4.1 -0.3,4.1 l 226.5,44.9 13.5,2.6 v -0.1 c -0.3,-92.8 13.9,-166.7 31.8,-216.8 14.9,-41.7 50.6,-72 93.7,-81.5 13.7,-3.1 38.7,-6.5 51.2,-10.4 0,0 3.2,-84.4 7.6,-204.5 4.3,-119.3 9.6,-273.8 13.9,-416 0.4,-10.7 0.7,-21.3 1,-31.8"
         style="fill:#ffb27d;fill-opacity:1;fill-rule:nonzero;stroke:none"
         id="path240" /><path
         d="m 11484.6,7744.7 c 0,0 5.1,-71.3 5.3,-138.5 126.8,3.6 193.8,119.3 221.2,183.4 l -226.5,-44.9"
         style="fill:#e8945b;fill-opacity:1;fill-rule:nonzero;stroke:none"
         id="path242" /><path
         d="m 11442.2,7681.1 c 0,0 300,-4.9 300.2,181.9 0.2,186.8 39.1,312 -152.5,323.1 -191.5,11.1 -228.7,-60.2 -244,-122.5 -15.2,-62.4 18.3,-376.4 96.3,-382.5"
         style="fill:#ffb27d;fill-opacity:1;fill-rule:nonzero;stroke:none"
         id="path244" /><path
         d="m 11453.3,8190.7 c 0,0 82.2,-219.2 208.2,-251.6 126,-32.4 180.7,1.3 180.7,1.3 0,0 -96.7,76.8 -116.7,210.9 0,0 -210.2,143.7 -272.2,39.4"
         style="fill:#163560;fill-opacity:1;fill-rule:nonzero;stroke:none"
         id="path246" /><path
         d="m 11473.7,8172.9 c 0,0 -60.9,-22.8 -86,-67.2 -24.5,-43.4 -45.4,-101 -40.5,-171.5 0,0 -61.9,149 7.6,233.2 73.8,89.4 118.9,5.5 118.9,5.5"
         style="fill:#163560;fill-opacity:1;fill-rule:nonzero;stroke:none"
         id="path248" /><path
         d="m 11507.5,7797 c 0,0 -20.7,-27.2 -62.1,-25.3 -33.4,1.6 -46.2,30.6 -46.2,30.6 0,0 61.2,14.7 108.3,-5.3"
         style="fill:#ebf3fa;fill-opacity:1;fill-rule:nonzero;stroke:none"
         id="path250" /><path
         d="m 11970.5,6831.1 h -60.1 l -0.1,2.1 c -0.3,12.9 -1.3,26.3 -3.1,40.1 l 15.6,-10.4 47.7,-31.8"
         style="fill:#ebeef2;fill-opacity:1;fill-rule:nonzero;stroke:none"
         id="path252" /><path
         d="m 11500.8,7792 c 0,0 -5.2,-22 -59.9,-18.6 0,0 -46,2.8 -44.6,27 0,0 44.6,17.2 104.5,-8.4"
         style="fill:#ffffff;fill-opacity:1;fill-rule:nonzero;stroke:none"
         id="path254" /><path
         d="m 12226.2,7040.4 c -21,101.9 -43.8,193.6 -69.6,244.5 -1.4,2.7 -2.8,5.4 -4.2,8 v 0.1 c -90.3,168.6 -251.1,190.4 -251.1,190.4 -316.2,-257.9 -559,-20.2 -559,-20.2 0,0 -134.4,-31.1 -173.9,-91.1 -15.2,-23.1 -49.2,-108.2 -86.8,-205 -52.8,-135.7 -112.7,-294.1 -138.3,-336 h 261.7 174.2 532.4 127.6 226.9 c -12.7,68.2 -25.9,141 -39.9,209.3"
         style="fill:#ffffff;fill-opacity:1;fill-rule:nonzero;stroke:none"
         id="path256" /><path
         d="m 13851.1,7484.5 c -149.8,10.2 -314.4,-48.9 -308.2,-35.4 1,2.8 2.3,5.6 3.7,8.5 l 0.2,0.3 c 0,0 -96.3,1.1 -204.4,-15.8 -101,-15.7 -212.2,-47 -264.7,-109.6 -10.4,-12.4 -24,-27.8 -40.1,-45.6 -35.9,-39.9 -84.1,-91.6 -135.8,-148.2 -91.4,-100.2 -194,-215.7 -260,-307.6 h 594.1 27 263.8 c 71.1,0 135.3,39.8 164.8,101.4 l 132.5,282.3 90.3,192.3 30.4,64.8 c -33.4,6.6 -64.6,10.7 -93.6,12.6"
         style="fill:#abddda;fill-opacity:1;fill-rule:nonzero;stroke:none"
         id="path258" /><path
         d="m 13961.5,7507.7 -16.8,-35.8 -30.4,-64.8 c -67.1,-19.8 -157.5,-37.7 -254.3,-31.7 h -0.2 c -2.6,0.1 -5.1,0.3 -7.7,0.5 h -0.3 c -28.3,2.1 -57.1,6.3 -86,13.1 0,0 -11.6,3.9 -19.7,14.5 -7.2,9.3 -11.7,23.9 -3.2,45.6 1,2.8 2.3,5.6 3.7,8.5 l 0.2,0.3 c -11.1,45.5 -9.7,41.4 -15.6,75.1 -1.4,7.3 -2.8,14.6 -4.1,21.8 -1.2,6.4 -2.3,12.5 -3.2,18.3 -3.5,20.2 -5.9,37 -7.5,50 -0.1,1.2 -0.3,2.5 -0.5,3.8 -0.3,2.3 -0.5,4.4 -0.8,6.4 l -0.3,2.2 c -1.5,12.8 -1.9,19.5 -1.9,19.5 l 5.6,5.1 139.7,126.6 58.4,53.4 65.3,59.8 13.9,12.7 c 0.5,-15.5 1.5,-30.6 3,-45.3 0.6,-6 1.2,-11.9 2,-17.8 2.3,-18.3 5.2,-36 8.8,-52.9 19.1,-91.4 54.9,-163 92.3,-216.7 20.3,-29.3 41,-53.2 59.6,-72.2"
         style="fill:#ffb27d;fill-opacity:1;fill-rule:nonzero;stroke:none"
         id="path260" /><path
         d="m 13807.2,7788.4 c 0,0 -87.9,-190.7 -276,-255.4 -15.2,77.6 -22.9,158.2 -22.9,158.2 l 149.9,95.5 149,1.7"
         style="fill:#ed985f;fill-opacity:1;fill-rule:nonzero;stroke:none"
         id="path262" /><path
         d="m 13362.2,7673 c 0,0 414.1,-83.2 462.4,171.5 48.4,254.7 134.4,415.5 -128,479.4 -262.3,63.8 -332.3,-23.8 -369.4,-104.9 -37.2,-81.2 -71.5,-517.8 35,-546"
         style="fill:#ffb27d;fill-opacity:1;fill-rule:nonzero;stroke:none"
         id="path264" /><path
         d="m 13994.3,8343.8 c 3.9,4.2 12.7,7.4 32.2,7.8 0,0 -15.2,10.2 -35.9,11.5 -3.1,27.1 -15.7,75.4 -61.8,88.7 0,0 24.5,-14.2 26.8,-43 -51.9,57.2 -165.7,101.6 -485.9,87.9 -421.9,-18 -293,-292.4 -239.7,-326.5 53.4,-34.1 193.6,49 294.8,37.3 101.2,-11.7 115.2,-159.1 149,-180.4 33.7,-21.4 21.4,14.6 68.7,34 47.4,19.4 49,-57.9 33.8,-107.7 -15.3,-49.7 46.3,-118.2 46.3,-118.2 0,0 0,0 67.2,67.4 67.2,67.3 138.8,360.1 111.7,424.1 -2.4,5.6 -4.8,11.4 -7.2,17.1"
         style="fill:#2c3a64;fill-opacity:1;fill-rule:nonzero;stroke:none"
         id="path266" /><path
         d="m 13901.9,7579.9 c -6.4,-37.3 -25.7,-68.9 -50.8,-95.4 -67.3,-71.1 -176.4,-104.8 -191.1,-109.1 h -0.2 l -1.5,-0.5 c 13.9,-76 0.3,-201.1 0.3,-201.1 61.6,2.8 116.9,18.5 165.4,41 l 90.3,192.3 30.4,64.8 16.8,35.8 13.2,28.1 c -49.5,37 -72.8,44.1 -72.8,44.1"
         style="fill:#91cecf;fill-opacity:1;fill-rule:nonzero;stroke:none"
         id="path268" /><path
         d="m 13658.3,7374.9 c 0,0 -136.3,-60 -154,-167.7 0,0 -44.3,83.1 -25.7,137 18.6,54 68.2,113.7 68.2,113.7 0,0 -9.3,-66 111.5,-83"
         style="fill:#91cecf;fill-opacity:1;fill-rule:nonzero;stroke:none"
         id="path270" /><path
         d="m 13421.9,7007.2 c -15.7,22 -32.6,43.2 -50.7,63.3 -16.4,18.5 -33.8,36.2 -52.1,52.9 -15.8,14.6 -32.3,28.6 -49.4,41.7 -4.2,3.3 -8.4,6.5 -12.7,9.6 -65.7,48.7 -139.7,86.9 -219.4,112.2 -71.4,22.6 -147.3,34.8 -226.1,34.8 -103,0 -201.2,-20.9 -290.7,-58.6 -6.7,-2.8 -13.3,-5.7 -19.9,-8.7 -61.9,-28.3 -119.4,-64.7 -170.9,-108 -38,-31.8 -72.8,-67.3 -103.8,-106 -50.2,-62.4 -90.6,-132.9 -118.9,-209.3 h 191.7 c 47.8,93.9 120.6,172.9 209.7,228.3 87.9,54.8 191.7,86.4 302.8,86.4 30.7,0 60.9,-2.4 90.3,-7.1 126.2,-20 238.9,-81.3 323.8,-169.6 10,-10.3 19.6,-21.1 28.8,-32.2 12.4,-15.1 24.2,-30.8 35,-47.2 12.7,-18.8 24.1,-38.3 34.4,-58.6 h 191.8 c -23.4,63.1 -55,122.3 -93.7,176.1"
         style="fill:#233862;fill-opacity:1;fill-rule:nonzero;stroke:none"
         id="path272" /><path
         d="m 13306.7,7856.2 c 0,0 3.8,-45.2 29.7,-53 25.9,-7.8 66,-6.5 82.8,10.4 16.8,16.8 16.8,16.8 16.8,16.8 0,0 -98.3,34.9 -129.3,25.8"
         style="fill:#ffffff;fill-opacity:1;fill-rule:nonzero;stroke:none"
         id="path274" /><path
         d="m 13321.6,7225.6 c 0,0 -170,-119.1 -140,-169.7 30.1,-50.6 251.6,-63.1 278.1,-38.1 26.6,25 -84.6,249.2 -138.1,207.8"
         style="fill:#ffb27d;fill-opacity:1;fill-rule:nonzero;stroke:none"
         id="path276" /><path
         d="m 12319.4,7153.4 c 0,0 140.8,-96.8 186.1,-65.7 45.4,31 26.5,190 -1.8,203.9 -28.2,13.9 -232.4,-108.5 -184.3,-138.2"
         style="fill:#ffb27d;fill-opacity:1;fill-rule:nonzero;stroke:none"
         id="path278" /><path
         d="m 20759.5,6764.4 h -1720.6 c 36.1,137.7 93.4,339.7 157.9,504.8 5.1,13 10.2,25.9 15.4,38.4 45.1,108.9 93,196.7 139.3,230.5 l 2.3,1.7 c 8.2,5.7 16.4,9.7 24.5,11.8 23.8,6.1 60.9,12.6 107.8,18.7 37.5,4.9 81.1,9.5 129.2,13.6 57.3,4.8 120.9,8.7 187.7,11 12.5,0.5 25.1,0.9 37.7,1.2 17.8,0.5 35.7,0.8 53.8,1.1 25,0.3 50.2,0.4 75.6,0.2 29.6,-0.2 59.3,-0.8 89,-1.8 237,-7.8 468,-42 575.5,-127 3.8,-3 7.5,-6.1 11,-9.2 134.9,-121.3 134.9,-452.6 113.9,-695"
         style="fill:#91cecf;fill-opacity:1;fill-rule:nonzero;stroke:none"
         id="path280" /><path
         d="m 19413.3,7144.8 c 133,21 178.1,189.4 73.6,274.3 -105.7,86 -205,178.2 -228.3,237.1 -54.2,137 -87.1,434.3 -87.1,434.3 l -95.3,-29.5 c 0,0 -40.4,-328.4 8.8,-513 35.8,-134.1 161.8,-291 228.1,-366.8 24.9,-28.6 62.8,-42.3 100.2,-36.4"
         style="fill:#ffb27d;fill-opacity:1;fill-rule:nonzero;stroke:none"
         id="path282" /><path
         d="m 19076.2,8061 c 0,0 5,133 45.8,183 40.8,50 71,93.8 111.4,72 40.4,-21.8 -20.9,-143.5 -13.2,-148.2 7.7,-4.7 61.7,43 63.1,28 1.3,-14.9 -64.3,-79 -77,-85.9 -12.7,-7 -34.8,-19.4 -34.8,-19.4 l -95.3,-29.5"
         style="fill:#ffb27d;fill-opacity:1;fill-rule:nonzero;stroke:none"
         id="path284" /><path
         d="m 19595.3,7413.7 c 0,0 -63.6,-2.8 -89.1,11.1 -81.7,44.7 -189.5,149.3 -189.5,149.3 0,0 -218.4,-231.1 -65.7,-507 7.8,-14.1 344.3,346.6 344.3,346.6"
         style="fill:#f77d48;fill-opacity:1;fill-rule:nonzero;stroke:none"
         id="path286" /><path
         d="m 20132.8,6764.4 h -960.2 c 22.1,107.7 48.1,211.2 78.5,302.6 15.3,46.4 31.7,89.6 49.4,128.7 54.1,120.3 119.2,201.6 196.8,214.1 4.1,0.7 8.3,1.2 12.5,1.5 17.2,1.1 37.2,2.1 59.3,2.4 h 1.4 c 8,0.1 16.2,0.1 24.8,0 h 0.4 c 79.7,-0.8 180.5,-10.9 277.1,-47 8.3,-3.1 16.6,-6.4 24.8,-9.9 l 0.2,-0.1 c 46.8,-20 92.1,-46.5 132.8,-81.7 18.6,-15.9 36.2,-33.7 52.6,-53.4 26.3,-31.6 36.9,-184.7 41.1,-298.9 2.7,-72.6 2.8,-129.5 2.8,-129.5 0,0 2.1,-10.4 5.7,-28.8"
         style="fill:#f77d48;fill-opacity:1;fill-rule:nonzero;stroke:none"
         id="path288" /><path
         d="m 19515.1,7995.7 c 2.4,3.7 103.6,151.9 283.8,175.8 146.1,19.4 278.3,-88 295.5,-234.3 17.2,-147 -12.3,-335.6 -253.3,-395.4 l -326,453.9"
         style="fill:#2c3a64;fill-opacity:1;fill-rule:nonzero;stroke:none"
         id="path290" /><path
         d="m 19664.2,7284.8 0.3,-0.1 c 79.1,-35.7 172.3,-2.2 210.7,75.7 0,0 -28.9,70.3 -34.1,181.4 -2.1,46.7 -0.1,100.6 10,159.5 l -238.3,-93.6 c 0,0 3.3,-21.5 3.9,-52.8 0.5,-33.9 -2.2,-79.1 -16,-121 l -0.3,-1.1 c -19.6,-58.6 7.5,-122.6 63.8,-148"
         style="fill:#ffb27d;fill-opacity:1;fill-rule:nonzero;stroke:none"
         id="path292" /><path
         d="m 19600.7,7433.9 c 129.3,-9.4 240.4,107.9 240.4,107.9 l -224.4,13.1 c 0.5,-33.9 -2.2,-79.1 -16,-121"
         style="fill:#ea9c68;fill-opacity:1;fill-rule:nonzero;stroke:none"
         id="path294" /><path
         d="m 19545.3,7511.9 c 0,0 250.5,-93.4 359.6,102.4 117.6,211.3 28.5,382.5 -57.8,402 -172.1,39 -279.8,-17.4 -317.4,-84.6 -37.6,-67.2 -122.8,-369.5 15.6,-419.8"
         style="fill:#ffb27d;fill-opacity:1;fill-rule:nonzero;stroke:none"
         id="path296" /><path
         d="m 19658.7,7617 c 0,0 -13.4,-25.5 -79.8,-3.8 0,0 -55.7,18.1 -46.3,47.5 0,0 60.4,7 126.1,-43.7"
         style="fill:#ffffff;fill-opacity:1;fill-rule:nonzero;stroke:none"
         id="path298" /><path
         d="m 19740.3,7996.4 c 0,0 -32.5,-237 190.2,-329.2 88.5,-36.7 148,324.9 -36.9,404.1 -184.9,79.1 -372.8,-0.5 -399.4,-126.5 -26.5,-126 -10.6,-153.1 -10.6,-153.1 0,0 96.2,238.2 256.7,204.7"
         style="fill:#2c3a64;fill-opacity:1;fill-rule:nonzero;stroke:none"
         id="path300" /><path
         d="m 20032.3,7953.2 c 8.9,31.7 2.6,40.8 -7.6,43.6 -10.2,2.8 -20.3,-1.6 -29.2,-33.3 -8.8,-31.7 2.4,-62.6 2.4,-62.6 0,0 25.6,20.6 34.4,52.3"
         style="fill:#f99746;fill-opacity:1;fill-rule:nonzero;stroke:none"
         id="path302" /><path
         d="m 19958.5,7953.4 c -25.5,20.8 -36.4,18.6 -43,10.4 -6.7,-8.2 -6.7,-19.2 18.9,-40.1 25.5,-20.8 58.2,-22.8 58.2,-22.8 0,0 -8.6,31.7 -34.1,52.5"
         style="fill:#f99746;fill-opacity:1;fill-rule:nonzero;stroke:none"
         id="path304" /><path
         d="m 20057.7,7925.6 c 32.6,4.6 40.7,-2.9 42.2,-13.4 1.5,-10.4 -4.3,-19.9 -36.9,-24.4 -32.6,-4.6 -61.7,10.7 -61.7,10.7 0,0 23.8,22.6 56.4,27.1"
         style="fill:#f99746;fill-opacity:1;fill-rule:nonzero;stroke:none"
         id="path306" /><path
         d="m 20042.6,7852.7 c 14.9,-29.4 10.4,-39.5 1,-44.2 -9.5,-4.8 -20.3,-2.4 -35.1,27 -14.8,29.4 -9.8,61.8 -9.8,61.8 0,0 29.1,-15.2 43.9,-44.6"
         style="fill:#f99746;fill-opacity:1;fill-rule:nonzero;stroke:none"
         id="path308" /><path
         d="m 19935,7882.8 c -28,-17.4 -29.4,-28.3 -23.8,-37.3 5.6,-9 16,-12.5 44,4.9 27.9,17.4 40.5,47.8 40.5,47.8 0,0 -32.8,2.1 -60.7,-15.4"
         style="fill:#f99746;fill-opacity:1;fill-rule:nonzero;stroke:none"
         id="path310" /><path
         d="m 20012.3,7900.9 c 0.3,7.6 -5.7,14.1 -13.4,14.4 -7.7,0.2 -14.1,-5.8 -14.4,-13.5 -0.3,-7.6 5.7,-14.1 13.4,-14.4 7.7,-0.2 14.1,5.8 14.4,13.5"
         style="fill:#ffb93e;fill-opacity:1;fill-rule:nonzero;stroke:none"
         id="path312" /><path
         d="m 20213.6,6973.5 c 0.3,-72 -5.5,-147 -23.7,-209.1 H 19982 c 4.2,31.4 -0.6,76.5 -11,128.6 -11.1,56.5 -28.8,121.2 -48.6,185.5 -28,90.9 29.2,174.9 108.2,196.5 32.8,9 69.5,7.2 105.4,-9.4 34.4,-15.9 58.3,-48.3 63.1,-85.9 6.6,-50.4 14.2,-126.5 14.5,-206.2"
         style="fill:#ffb27d;fill-opacity:1;fill-rule:nonzero;stroke:none"
         id="path314" /><path
         d="m 19875.2,7360.4 c 0,0 190.2,-27.1 281.6,-90 91.4,-62.8 134.5,-224.9 134.5,-224.9 0,0 -146.5,-188 -379.3,-146.6 l -36.8,461.5"
         style="fill:#f77d48;fill-opacity:1;fill-rule:nonzero;stroke:none"
         id="path316" /><path
         d="m 19961.8,8118.1 c 0,0 184.9,69.9 385,0 200.1,-69.8 83.4,-292.7 158.4,-358.7 75,-66 170,-243.6 112.9,-345.6 -57,-102.1 -256,-146.7 -404.4,-110.5 -121.6,29.7 -237,217.8 -113.6,361.3 161.1,187.4 91.1,427.3 -138.7,379 l 0.4,74.5"
         style="fill:#2c3a64;fill-opacity:1;fill-rule:nonzero;stroke:none"
         id="path318" /><path
         d="m 18917.5,8613.2 c -69.5,0 -126,-56.5 -126,-125.9 V 6921.4 c 0,-69.5 56.5,-126 126,-126 h 1809 c 69.5,0 126,56.5 126,126 v 1565.9 c 0,69.4 -56.5,125.9 -126,125.9 z m 1809,-1879.8 h -1809 c -103.7,0 -188.1,84.3 -188.1,188 v 1565.9 c 0,103.7 84.4,188 188.1,188 h 1809 c 103.7,0 188.1,-84.3 188.1,-188 V 6921.4 c 0,-103.7 -84.4,-188 -188.1,-188"
         style="fill:#2c3a64;fill-opacity:1;fill-rule:nonzero;stroke:none"
         id="path320" /><path
         d="m 18269.9,7430.4 c -18.2,-25.5 -39.7,-55.5 -63.6,-88 v -422.8 c 0,-68.3 -55.9,-124.2 -124.2,-124.2 h -1490.7 c 27.7,107.8 71.5,267.4 122.8,417.2 1.4,4.1 2.8,8.2 4.3,12.3 37,106.9 77.7,207.9 119,280.4 0.9,1.5 1.7,3 2.6,4.5 33.1,57.1 66.6,95.6 98.8,103.9 22.7,5.9 57.6,12 101.6,17.9 20.1,2.7 42.1,5.3 65.7,7.8 25.4,2.7 52.5,5.2 81.2,7.5 h 0.1 c 55.7,4.5 116.9,8.1 181.1,10.3 30.7,1.1 62.2,1.8 94,2.1 16.6,0.2 33.4,0.3 50.2,0.3 15.5,0 31.1,-0.2 46.6,-0.4 35.7,-0.6 71.4,-1.6 106.8,-3.4 161.7,-7.8 317,-28.8 427.9,-70.8 45.9,-17.4 84.2,-38.3 112.2,-63.5 25.9,-23.3 46.9,-54.4 63.6,-91.1"
         style="fill:#91cecf;fill-opacity:1;fill-rule:nonzero;stroke:none"
         id="path322" /><path
         d="m 17072.1,7228.3 c 0,0 -366.3,422.3 -385,476.3 -18.8,53.9 -77.9,522.4 -77.9,522.4 l -100.1,0.7 c 0,0 -51.1,-546.2 -23.2,-657.4 27.9,-111.3 457.4,-624.3 457.4,-624.3 l 128.8,282.3"
         style="fill:#ffb27d;fill-opacity:1;fill-rule:nonzero;stroke:none"
         id="path324" /><path
         d="m 17149.4,7344.2 c 12.9,17.5 22.8,37.2 30.2,57.8 16.8,46.4 21.3,97 21.8,134.9 0.4,35.1 -2.6,59.2 -2.6,59.2 l 269.9,97.1 c -13.3,-65.6 -17.3,-125.9 -16.4,-178.3 2.2,-124.5 32.2,-204.2 32.2,-204.2 l -5.1,-11.8 c 29.3,-6.9 60.3,-14.7 93.3,-23.7 l -351,-165.5 -188.8,215 c 0,0 28.8,18.2 116.5,19.5"
         style="fill:#ffb27d;fill-opacity:1;fill-rule:nonzero;stroke:none"
         id="path326" /><path
         d="m 17179.6,7402 c 144.5,-14.7 272.7,112.9 272.7,112.9 l -250.9,22 c -0.5,-37.9 -5,-88.5 -21.8,-134.9"
         style="fill:#ea9c68;fill-opacity:1;fill-rule:nonzero;stroke:none"
         id="path328" /><path
         d="m 18524.6,8053.2 c 0,0 -129,-448.6 -220.4,-574.8 -9.5,-13.1 -21,-29.3 -34.3,-48 -18.2,-25.5 -39.7,-55.5 -63.6,-88 -46.8,-63.6 -102.6,-136.6 -160.8,-203.3 -75.9,-87.1 -155.6,-163.4 -223.8,-194.3 -21.6,-9.7 -42.1,-14.9 -60.9,-14.5 -13.9,0.3 -26.2,2.5 -37,6.1 -37.2,12.2 -57.9,41.6 -68.8,76.2 -23.9,75 -1.7,174.1 -1.7,174.1 0,0 21.8,21.8 56.9,56 41.7,40.5 102.3,98.6 167.2,158.1 73.7,67.5 153.1,136.8 216.7,184.2 17.4,13 33.6,24.3 48.2,33.5 0,0 27,47.9 64,113.3 75.8,134.2 193.9,342.5 207,362 0.9,1.4 2,2.5 3.2,3.4 23,17.9 96.8,-35.6 106.9,-43.1 l 1.2,-0.9"
         style="fill:#ffb27d;fill-opacity:1;fill-rule:nonzero;stroke:none"
         id="path330" /><path
         d="m 17120.1,7491.2 c 0,0 277.5,-112.8 405.9,102.8 138.6,232.8 44.4,427.4 -51.6,452.1 -191.4,49.2 -313.9,-10.5 -358.1,-84.5 -44.3,-74 -149.5,-409.6 3.8,-470.4"
         style="fill:#ffb27d;fill-opacity:1;fill-rule:nonzero;stroke:none"
         id="path332" /><path
         d="m 17264.4,7605.4 c 0,0 -34.9,-39.7 -108.5,-13.3 0,0 -67.3,21.3 -45.2,66 0,0 81.8,6.2 153.7,-52.7"
         style="fill:#ffffff;fill-opacity:1;fill-rule:nonzero;stroke:none"
         id="path334" /><path
         d="m 17464.5,7520.7 c 0,0 46.4,94.5 49.1,147.8 0,0 87.3,86 46.6,115.2 -40.6,29.3 -71.4,-24.2 -80,-11.8 -8.6,12.4 -0.1,202.2 -53.9,203.1 -53.8,0.8 -257.8,-34.7 -334.3,50.5 -76.5,85.3 169.5,348.2 508.8,190.8 339.2,-157.4 216.4,-541.3 -136.3,-695.6"
         style="fill:#2c3a64;fill-opacity:1;fill-rule:nonzero;stroke:none"
         id="path336" /><path
         d="m 17755.4,8039.7 c 0,0 22.2,45.7 9.3,82 0,0 -6.8,-46.9 -28,-65.4 -21.1,-18.6 18.7,-16.6 18.7,-16.6"
         style="fill:#2c3a64;fill-opacity:1;fill-rule:nonzero;stroke:none"
         id="path338" /><path
         d="m 17752.3,8074 c 0,0 44.4,-0.6 60.7,-36.9 0,0 -28.1,24.8 -62.1,6.7 l 1.4,30.2"
         style="fill:#2c3a64;fill-opacity:1;fill-rule:nonzero;stroke:none"
         id="path340" /><path
         d="m 17876.8,7151.8 -55.1,-207 -21.4,-80.4 -0.5,-1.7 -10.8,-40.8 -7.1,-26.5 h -1010.8 l 34.1,155.4 v 0.2 l 28.3,128.8 v 0.1 l 53.7,244.5 c 0,0 29.6,10.1 85.9,19.3 42.6,7 100.4,13.5 172.3,14.9 -0.8,-4.9 -1.3,-9.7 -1.4,-14.5 -1.1,-34.8 17.3,-67 85.1,-84 99.6,-24.9 198,23.4 252.1,60.6 1.7,1.2 3.4,2.3 5,3.5 71.6,-18.8 146.2,-45.2 224,-81.5 54,-25.2 109.5,-55.3 166.6,-90.9"
         style="fill:#f77d48;fill-opacity:1;fill-rule:nonzero;stroke:none"
         id="path342" /><path
         d="m 18048.1,7082.9 c 0,0 -219.6,-112.6 -248.3,-220.2 0,0 -285.8,250.6 -313.6,461.5 0,0 63.8,-3.2 140.1,-36.7 0,0 40.7,12.8 81.7,8.6 l 169.4,104.7 c 0,0 173.7,-69.9 170.7,-317.9"
         style="fill:#f77d48;fill-opacity:1;fill-rule:nonzero;stroke:none"
         id="path344" /><path
         d="m 17145.4,7358.6 c 0,0 -85.7,18.7 -117.6,15.1 0,0 -14,13.9 -50,20.5 l -171.9,144.4 c 0,0 -141.4,-111.6 -131.5,-293 0,0 143.4,-114.9 142.1,-138.5 -1.2,-23.5 -11.3,-156.8 -11.3,-156.8 l 340.2,408.3"
         style="fill:#f77d48;fill-opacity:1;fill-rule:nonzero;stroke:none"
         id="path346" /><path
         d="m 16609.2,8227 c 0,0 3.6,43 22,77.2 18.5,34.2 22.3,128.6 4,125.6 -18.3,-3 -14.7,-37.5 -33.9,-31 -19.3,6.4 -36.9,119 -63.8,112.5 -26.9,-6.6 -50.3,-40.7 -52.5,-120.7 -2.3,-79.9 24.1,-162.9 24.1,-162.9 l 100.1,-0.7"
         style="fill:#ffb27d;fill-opacity:1;fill-rule:nonzero;stroke:none"
         id="path348" /><path
         d="m 18415.5,8094.3 c 0,0 16.5,45.6 13.6,89.2 -3,43.6 37.1,142 54.5,130.4 17.3,-11.6 -2.5,-45.3 20.2,-47.6 22.7,-2.3 93.3,104.7 117.8,85.4 24.5,-19.3 32.5,-65.1 -2.5,-148 -35,-82.8 -100.8,-155.5 -100.8,-155.5 l -102.8,46.1"
         style="fill:#ffb27d;fill-opacity:1;fill-rule:nonzero;stroke:none"
         id="path350" /><path
         d="m 16257.7,8613.2 c -69.4,0 -125.9,-56.5 -125.9,-125.9 V 6921.4 c 0,-69.5 56.5,-126 125.9,-126 h 1809.1 c 69.4,0 125.9,56.5 125.9,126 v 1565.9 c 0,69.4 -56.5,125.9 -125.9,125.9 z m 1809.1,-1879.8 h -1809.1 c -103.7,0 -188,84.3 -188,188 v 1565.9 c 0,103.7 84.3,188 188,188 h 1809.1 c 103.7,0 188,-84.3 188,-188 V 6921.4 c 0,-103.7 -84.3,-188 -188,-188"
         style="fill:#2c3a64;fill-opacity:1;fill-rule:nonzero;stroke:none"
         id="path352" /><path
         d="m 11116.7,8641.8 c -55.3,0 -105.3,-32 -127.5,-81.4 l -680.5,-1518.5 c -18.4,-41.3 -14.7,-87 10.2,-125.2 25.7,-39.5 69.8,-63.1 118,-63.1 h 3070.2 c 54.8,0 105,31.4 127.8,79.9 l 759.8,1651.1 c 5.7,12.3 4.7,25.9 -2.6,37.5 -8.1,12.5 -21.4,19.7 -36.6,19.7 z m 2390.4,-1870 h -3070.2 c -76,0 -145.7,37.5 -186.6,100.3 -39.6,61 -45.7,136.9 -16.3,203.1 l 136.1,303.7 544.5,1214.9 c 35.2,78.8 114.6,129.8 202.1,129.8 h 3238.8 c 43,0 82.5,-21.5 105.5,-57.5 22.4,-35 25.4,-78.3 8,-115.8 L 13709.1,6899 c -36.4,-77.3 -115.6,-127.2 -202,-127.2"
         style="fill:#163560;fill-opacity:1;fill-rule:nonzero;stroke:none"
         id="path354" /><path
         d="m 15414.6,5746.4 v 0 c -36.3,0 -65.7,29.4 -65.7,65.7 v 204.8 c 0,36.3 29.4,65.7 65.7,65.7 36.3,0 65.8,-29.4 65.8,-65.7 v -204.8 c 0,-36.3 -29.5,-65.7 -65.8,-65.7"
         style="fill:#163560;fill-opacity:1;fill-rule:nonzero;stroke:none"
         id="path356" /><path
         d="m 15866.3,3719.2 h -62.1 v 5207.6 h 62.1 V 3719.2"
         style="fill:#ce631b;fill-opacity:1;fill-rule:nonzero;stroke:none"
         id="path358" /><path
         d="m 20935,6054.8 c -59.9,0 -108.6,-48.7 -108.6,-108.6 v -399.5 c 0,-59.9 48.7,-108.7 108.6,-108.7 h 788.6 c 59.9,0 108.6,48.8 108.6,108.7 v 399.5 c 0,59.9 -48.7,108.6 -108.6,108.6 z M 21723.6,5407 H 20935 c -77,0 -139.7,62.6 -139.7,139.7 v 399.5 c 0,77 62.7,139.6 139.7,139.6 h 788.6 c 77,0 139.7,-62.6 139.7,-139.6 v -399.5 c 0,-77.1 -62.7,-139.7 -139.7,-139.7"
         style="fill:#ce631b;fill-opacity:1;fill-rule:nonzero;stroke:none"
         id="path360" /></g></g></svg>
