<?xml version="1.0" encoding="UTF-8" standalone="no"?>
<svg
   xmlns:dc="http://purl.org/dc/elements/1.1/"
   xmlns:cc="http://creativecommons.org/ns#"
   xmlns:rdf="http://www.w3.org/1999/02/22-rdf-syntax-ns#"
   xmlns:svg="http://www.w3.org/2000/svg"
   xmlns="http://www.w3.org/2000/svg"
   xmlns:sodipodi="http://sodipodi.sourceforge.net/DTD/sodipodi-0.dtd"
   xmlns:inkscape="http://www.inkscape.org/namespaces/inkscape"
   version="1.1"
   id="svg2"
   xml:space="preserve"
   width="4273.3335"
   height="2666.6667"
   viewBox="0 0 4273.3335 2666.6667"
   sodipodi:docname="car_map.eps"><metadata
     id="metadata8"><rdf:RDF><cc:Work
         rdf:about=""><dc:format>image/svg+xml</dc:format><dc:type
           rdf:resource="http://purl.org/dc/dcmitype/StillImage" /></cc:Work></rdf:RDF></metadata><defs
     id="defs6"><clipPath
       clipPathUnits="userSpaceOnUse"
       id="clipPath104"><path
         d="m 9594.2,2190.5 c -216.66,0 -392.29,176.2 -392.29,393.6 0,217.4 175.63,393.7 392.29,393.7 216.66,0 392.3,-176.3 392.3,-393.7 0,-217.4 -175.64,-393.6 -392.3,-393.6"
         id="path102" /></clipPath></defs><sodipodi:namedview
     pagecolor="#ffffff"
     bordercolor="#666666"
     borderopacity="1"
     objecttolerance="10"
     gridtolerance="10"
     guidetolerance="10"
     inkscape:pageopacity="0"
     inkscape:pageshadow="2"
     inkscape:window-width="640"
     inkscape:window-height="480"
     id="namedview4" /><g
     id="g10"
     inkscape:groupmode="layer"
     inkscape:label="ink_ext_XXXXXX"
     transform="matrix(1.3333333,0,0,-1.3333333,0,2666.6667)"><g
       id="g12"
       transform="scale(0.1)"><path
         d="M 0,0 H 32050 V 20000 H 0 Z"
         style="fill:#ffffff;fill-opacity:1;fill-rule:nonzero;stroke:none"
         id="path14" /><path
         d="M 30644.5,1962.1 H 13253.2 c 420.8,66.3 749.5,411 792.9,840.4 3.3,31.9 4.9,64.2 4.9,97 v 12.6 h 7131.1 c 149.7,0 265.7,122.3 265.8,267.6 0,12 -0.7,24.1 -2.4,36.4 -6.2,47.2 -10.5,94.9 -13,143.2 908.7,16 2475.9,48.6 3345.1,66.9 -1.8,-31.4 -4.2,-62.6 -7.4,-93.6 -0.1,-0.8 -0.2,-1.6 -0.3,-2.3 0,-0.1 0,-0.1 0,-0.1 -0.2,-2.2 -0.4,-4.4 -0.7,-6.6 -1.3,-12.5 -2,-24.8 -2,-37 -0.3,-183.5 147,-337 335,-337 h 1295.1 c 235.5,0 426.4,190.9 426.4,426.4 v 70.2 264.9 c 0,70.8 -42.1,132 -102.9,159.6 v 677.6 c 0,149.9 -9.6,299.8 -32.1,448.1 -131.9,869.7 -558.2,1052.4 -1819.5,1304.6 -1391.7,278.4 -3158.5,1186 -3158.5,1186 0,0 -3013.4,1476.4 -3751.6,1645.9 -440.2,101 -1263.5,124.6 -2179.6,124.6 -563.5,0 -1162,-9 -1728.5,-14.2 v 5160.6 h 383.8 v -2225.6 h 512.9 v -762.4 h 353.8 V 9856.7 h 424.4 v 5000.6 h 230 v 783 h 2016.2 v -783 h 230 v -3710.8 l 672.1,17.7 v 2374.2 h 1910.1 l 85.8,-4462.9 285.6,17.7 v 1506.4 h 619.1 v 1185 h 371.4 v 796 h 1450.3 v -796 h 371.4 v -1185 H 24587 V 7818.8 l 530.6,17.7 v 2758 h 1773.7 V 7999.7 7578.2 h 1083.3 v 1309 h 1309.1 V 5947.4 h 1360.8 V 1962.1"
         style="fill:#e6ebf7;fill-opacity:1;fill-rule:nonzero;stroke:none"
         id="path16" /><path
         d="m 7544.11,2049.6 c 0,0 -663.19,3826.8 -931.36,4222 -203.57,300 -434.37,-70.5 -604.78,-440.9 -139.83,-304 -239.01,-607.9 -249.13,-541.6 C 5546.59,6680.2 5591,8434.7 4598.3,8700.6 4034,8851.7 4635.61,7390.3 4565.53,7013.7 4495.45,6637.2 3556.72,7981.5 2978.56,8692.8 2400.41,9404 2046.39,9011.6 2381.53,8148.7 2705.6,7314.4 3879.59,6336.7 3616.79,6253 c -115.43,-36.8 -464.48,166.9 -838.44,370.5 -477.44,260 -995.51,520 -1120.04,279.8 -272.29,-525.3 1997.73,-1452.4 1769.97,-1557 -90.16,-41.4 -314.08,10.7 -551.73,62.7 -362.71,79.4 -757.41,158.8 -757.41,-93.9 0,-418.4 1494.28,-523 1455.41,-703.9 -29.84,-138.9 -256.61,-43.3 -494.63,52.3 -263.93,106 -541.71,212 -580.26,-1.7 -74.99,-415.7 1274.23,-447.2 1227.1,-772.4 -27.08,-186.8 -366.9,8.8 -428.37,-248.1 C 3158.23,3055.5 5284.3,2234.8 5284.3,2234.8 l 2259.81,-185.2"
         style="fill:#3c8f7c;fill-opacity:1;fill-rule:nonzero;stroke:none"
         id="path18" /><path
         d="m 8602.14,1950.6 c -269.82,351 -1863.63,2314.4 -2828.38,2627.8 -1064.92,345.9 -61.24,-1028 -61.24,-1028 0,0 -1889.14,2072.7 -2582.39,1885.9 -635.48,-171.3 0,-1456.1 0,-1456.1 0,0 -715.74,711.4 -1583.71,711.4 -844.744,0 613.44,-2605.9 690.85,-2741 h 6364.87"
         style="fill:#96d9c9;fill-opacity:1;fill-rule:nonzero;stroke:none"
         id="path20" /><path
         d="m 1998.83,3345.1 c -5.13,-32.5 -38.81,-126.7 -18.03,-219.7 12.31,-91.8 79.09,-182.4 79.58,-177.9 5.74,0.3 -104.1,29.8 -178.38,124.2 -79.49,86.7 -123.41,238.3 -105.8,303.7 18.71,137.9 132.96,204.9 180.14,164.6 48.45,-39.3 49.75,-123.2 42.49,-194.9"
         style="fill:#50bfa5;fill-opacity:1;fill-rule:nonzero;stroke:none"
         id="path22" /><path
         d="m 2693.16,3095.6 c -5.12,-32.4 -38.8,-126.6 -18.03,-219.7 12.32,-91.8 79.09,-182.4 79.58,-177.9 5.74,0.3 -104.1,29.9 -178.38,124.3 -79.48,86.7 -123.4,238.2 -105.8,303.6 18.71,137.9 132.96,204.9 180.15,164.7 48.45,-39.3 49.74,-123.3 42.48,-195"
         style="fill:#50bfa5;fill-opacity:1;fill-rule:nonzero;stroke:none"
         id="path24" /><path
         d="m 3398.67,2780.1 c -5.13,-32.5 -38.81,-126.7 -18.04,-219.7 12.32,-91.8 79.1,-182.4 79.59,-177.9 5.74,0.3 -104.1,29.8 -178.38,124.2 -79.48,86.7 -123.41,238.3 -105.8,303.7 18.71,137.9 132.95,204.9 180.15,164.6 48.44,-39.2 49.74,-123.2 42.48,-194.9"
         style="fill:#50bfa5;fill-opacity:1;fill-rule:nonzero;stroke:none"
         id="path26" /><path
         d="m 1791.55,2694.1 c 14.27,26.8 41.84,115.1 108.91,172 60.12,60.8 159.74,90.1 157.58,86.6 4.07,-3.5 -93.3,36.3 -200.56,8.3 -106.78,-19.4 -223.44,-106.5 -246.85,-164.5 -62.91,-112.1 -16,-225.5 41.19,-222.2 57.54,1.8 105.19,62.9 139.73,119.8"
         style="fill:#50bfa5;fill-opacity:1;fill-rule:nonzero;stroke:none"
         id="path28" /><path
         d="m 2513.77,2437.6 c 14.26,26.8 41.84,115.1 108.91,172 60.12,60.8 159.73,90.1 157.58,86.6 4.08,-3.5 -93.3,36.3 -200.56,8.3 -106.78,-19.4 -223.45,-106.5 -246.85,-164.5 -62.9,-112.1 -16,-225.5 41.18,-222.2 57.55,1.8 105.2,62.9 139.74,119.8"
         style="fill:#50bfa5;fill-opacity:1;fill-rule:nonzero;stroke:none"
         id="path30" /><path
         d="m 1324.87,3298.9 c 2.86,-19.3 0.52,-78.6 28.79,-127.6 23.26,-49.7 77.13,-89 76.6,-86.4 3.2,1.2 -64.19,-1.7 -122.98,38.4 -60.35,34.9 -112.1,112.8 -113.75,152.9 -13.89,81.4 38.85,139.7 72.71,125.4 34.38,-13.6 50.01,-60.8 58.63,-102.7"
         style="fill:#50bfa5;fill-opacity:1;fill-rule:nonzero;stroke:none"
         id="path32" /><path
         d="m 1211.79,2973.2 c 12.48,14.9 41.42,66.7 91.03,93.5 45.75,30.2 112.17,35.4 110.35,33.5 2.1,-2.7 -53.81,35.1 -124.85,31.8 -69.6,2 -154.32,-37.3 -176.66,-70.6 -54.26,-62 -39.73,-139.5 -3.4,-145 36.37,-6.5 74.35,25.6 103.53,56.8"
         style="fill:#50bfa5;fill-opacity:1;fill-rule:nonzero;stroke:none"
         id="path34" /><path
         d="M 2815.92,6039.3 C 3587.77,4829.8 4159.65,3378.5 4481.73,1951 h 83.26 c -320.74,1397.6 -919.18,2860.8 -1689.76,4069 -179.08,280.8 -372.47,613.9 -707.78,723.5 -6.46,2.1 -8.92,-7.8 -2.75,-10.1 306.27,-115.8 483.66,-431.5 651.22,-694.1"
         style="fill:#50bfa5;fill-opacity:1;fill-rule:nonzero;stroke:none"
         id="path36" /><path
         d="m 4325.28,1951 c -862.52,1176.9 -1949.29,2322.2 -3196.14,3268.2 -12.45,9.4 -29.25,-12.4 -16.72,-22 C 2294.97,4285.1 3361.67,3168.1 4242.03,1951 h 83.25"
         style="fill:#50bfa5;fill-opacity:1;fill-rule:nonzero;stroke:none"
         id="path38" /><path
         d="m 2745.38,6789.5 c -19.87,-29.3 -95.93,-105.8 -118.28,-206.3 -30.02,-95.3 -6.31,-214.6 -3.77,-210.4 5.73,-2.4 -88,77.1 -117.29,203.6 -37.91,121.3 -11.38,289.6 35.78,345.4 81.45,126 223.75,138.8 251.38,77.7 29.33,-60.7 -7.86,-143.3 -47.82,-210"
         style="fill:#50bfa5;fill-opacity:1;fill-rule:nonzero;stroke:none"
         id="path40" /><path
         d="m 2560.72,5709.8 c 28.82,20.5 103.52,98.3 203.19,122.7 94.38,32 213.73,10.6 209.62,7.9 2.47,-5.7 -78.62,86.8 -205.23,113.7 -121.63,35.6 -288.79,5.7 -343.42,-42.7 -123.98,-84.2 -133.9,-227.2 -72.45,-253.7 61.06,-28.2 142.62,10.7 208.29,52.1"
         style="fill:#50bfa5;fill-opacity:1;fill-rule:nonzero;stroke:none"
         id="path42" /><path
         d="m 2839.38,5236.6 c 28.83,20.5 103.53,98.3 203.19,122.7 94.38,32 213.73,10.6 209.61,7.9 2.48,-5.7 -78.61,86.8 -205.22,113.7 -121.63,35.6 -288.79,5.7 -343.42,-42.7 -123.97,-84.2 -133.9,-227.2 -72.46,-253.7 61.07,-28.3 142.64,10.7 208.3,52.1"
         style="fill:#50bfa5;fill-opacity:1;fill-rule:nonzero;stroke:none"
         id="path44" /><path
         d="m 1845.42,4139 c 28.81,20.5 103.52,98.3 203.18,122.7 94.38,32 213.73,10.6 209.62,7.9 2.47,-5.7 -78.62,86.8 -205.23,113.7 -121.63,35.6 -288.79,5.7 -343.42,-42.7 -123.97,-84.2 -133.9,-227.2 -72.46,-253.7 61.07,-28.2 142.64,10.7 208.31,52.1"
         style="fill:#50bfa5;fill-opacity:1;fill-rule:nonzero;stroke:none"
         id="path46" /><path
         d="m 1337.6,4587.9 c 28.82,20.5 103.51,98.3 203.19,122.7 94.37,32 213.72,10.6 209.61,8 2.47,-5.7 -78.62,86.7 -205.23,113.6 -121.63,35.7 -288.79,5.7 -343.42,-42.7 -123.98,-84.2 -133.9,-227.2 -72.45,-253.7 61.06,-28.3 142.62,10.7 208.3,52.1"
         style="fill:#50bfa5;fill-opacity:1;fill-rule:nonzero;stroke:none"
         id="path48" /><path
         d="m 3135.28,6254 c -24.23,-25.8 -111.35,-89.3 -149.21,-184.9 -44.61,-89.4 -39.95,-211 -36.78,-207.3 5.29,-3.2 -74.78,90.2 -83.83,219.7 -18.38,125.8 34.27,287.8 89.6,335.4 100.23,111.5 242.76,101.6 260.44,36.9 19.43,-64.6 -30.29,-140.2 -80.22,-199.8"
         style="fill:#50bfa5;fill-opacity:1;fill-rule:nonzero;stroke:none"
         id="path50" /><path
         d="m 3545.05,5717.4 c -34.48,-18.4 -154.96,-51.7 -215.55,-142.1 -68.59,-80.5 -77.3,-218.2 -72.74,-215.4 6.45,-5.9 -85.88,132.8 -81.89,281.3 -8.53,148.3 79.25,306.4 156.64,335.7 143.27,81.3 326.56,8.7 341.61,-71.1 17.31,-80.5 -56.21,-143.5 -128.07,-188.4"
         style="fill:#50bfa5;fill-opacity:1;fill-rule:nonzero;stroke:none"
         id="path52" /><path
         d="m 3976.33,4904.6 c -37.07,-12.3 -161.4,-24.8 -236.3,-103.7 -81.1,-67.8 -112.76,-202.1 -107.8,-200.1 5.37,-6.9 -62.39,145.4 -33.57,291.1 16.45,147.7 129.47,288.7 210.67,304.5 154.85,56 323.38,-46.5 324.82,-127.7 3.58,-82.3 -79.45,-132 -157.82,-164.1"
         style="fill:#50bfa5;fill-opacity:1;fill-rule:nonzero;stroke:none"
         id="path54" /><path
         d="m 2700.13,4338.4 c -27.01,-16.9 -123.12,-50.9 -167.27,-127.9 -51.22,-69.4 -50.5,-181.9 -46.95,-179.4 5.58,-4.4 -77.39,103.2 -82.57,224.2 -15.36,120.1 47.08,253.7 108.37,282 111.92,74.3 265.14,25.8 281.9,-38.3 18.65,-64.5 -37.57,-120 -93.48,-160.6"
         style="fill:#50bfa5;fill-opacity:1;fill-rule:nonzero;stroke:none"
         id="path56" /><path
         d="m 2035.72,6599.2 c 16.15,13.4 56.95,62.7 114.84,81.5 54.44,23 125.98,15.6 123.65,13.9 1.72,-3.3 -50.28,47.9 -126.36,58.2 -73.5,15.7 -171.08,-9.3 -201.28,-40.3 -69.67,-55.3 -69.3,-140.3 -31.8,-153.3 37.35,-14 83.9,12.6 120.95,40"
         style="fill:#50bfa5;fill-opacity:1;fill-rule:nonzero;stroke:none"
         id="path58" /><path
         d="m 2190.46,6944.6 c -0.71,-21 -14.73,-83.6 5.77,-141.1 15.02,-57.3 64.56,-109.6 64.52,-106.7 3.63,0.6 -68.49,10.7 -123.1,64.9 -57.3,48.8 -97.1,141.6 -91.04,184.5 1.08,89.2 68.42,140.8 101.56,118.9 33.87,-21.1 41.28,-74.4 42.29,-120.5"
         style="fill:#50bfa5;fill-opacity:1;fill-rule:nonzero;stroke:none"
         id="path60" /><path
         d="m 971.891,5045.2 c 16.156,13.4 56.949,62.7 114.849,81.5 54.43,23 125.97,15.6 123.65,13.9 1.71,-3.3 -50.29,47.8 -126.36,58.2 -73.51,15.7 -171.085,-9.3 -201.292,-40.4 -69.668,-55.2 -69.297,-140.2 -31.797,-153.2 37.356,-14 83.907,12.6 120.95,40"
         style="fill:#50bfa5;fill-opacity:1;fill-rule:nonzero;stroke:none"
         id="path62" /><path
         d="m 1158.56,5393.5 c -2.42,-20.9 -21.49,-82 -5.76,-141 10.3,-58.4 55.4,-114.6 55.59,-111.7 3.67,0.3 -67.38,16.3 -117.39,74.8 -53.12,53.3 -85.21,149.1 -75.66,191.4 8.34,88.7 79.67,134.7 110.92,110.1 32.03,-23.8 35.07,-77.5 32.3,-123.6"
         style="fill:#50bfa5;fill-opacity:1;fill-rule:nonzero;stroke:none"
         id="path64" /><path
         d="m 1289.01,3106.3 c 222.47,-20.1 442.28,-61 658.3,-117.8 394.04,-103.5 773.07,-256.5 1146.04,-419.1 183.35,-79.9 367.9,-158.8 547.75,-246.4 84.07,-40.9 168.72,-82 246.19,-134.5 104.44,-70.8 267.42,-212.6 287.16,-235 l -85.63,-2.5 c -58.5,47.6 -273.33,229.1 -571.51,372.7 -706.63,340.4 -1440.68,689.5 -2228.82,776.2 -4.11,0.4 -3.62,6.8 0.52,6.4"
         style="fill:#50bfa5;fill-opacity:1;fill-rule:nonzero;stroke:none"
         id="path66" /><path
         d="m 9872.54,2028.2 c 209.16,179.3 335.66,369.4 303.26,558.5 -57.8,337.4 -536.71,120.6 -554.91,364.2 -31.66,423.8 1796.41,324.6 1736.01,868 -31.2,280.4 -420.1,170.8 -788.8,61.1 -329.9,-98.1 -643.57,-196.2 -670.11,-14.9 -34.72,237.1 1996.81,217 2038.11,756.1 25.1,328.5 -526.2,263.2 -1028.2,197.8 -321.7,-41.9 -623.2,-83.7 -739.5,-21.9 -297.76,158.4 2864.2,1117.8 2547.7,1822.7 -145.8,324.7 -881.4,37.2 -1556.7,-250.4 -520.6,-221.7 -1005.4,-443.3 -1156.5,-384.6 -347.26,135.1 1337.2,1273.2 1857.8,2314.7 538.5,1077.1 98.4,1619.4 -753.8,762.8 -852.2,-856.5 -2254.64,-2491.5 -2312.27,-1999 -57.64,492.4 900.33,2313.2 122.12,2176.9 -1368.99,-239.8 -1482.02,-2505 -1906.38,-4275.4 -20.44,-85.2 -126.24,324.5 -287.73,734.2 -193.72,491.5 -467.58,983 -770.35,620.1 -285.57,-342.2 244.04,-2862.2 574.17,-4290.9 h 3346.08"
         style="fill:#96d9c9;fill-opacity:1;fill-rule:nonzero;stroke:none"
         id="path68" /><path
         d="m 17164.2,12839.2 c 0,-400.7 -324.7,-725.4 -725.4,-725.4 -400.6,0 -725.3,324.7 -725.3,725.4 0,400.6 324.7,725.4 725.3,725.4 400.7,0 725.4,-324.8 725.4,-725.4"
         style="fill:#ffffff;fill-opacity:1;fill-rule:nonzero;stroke:none"
         id="path70" /><path
         d="m 22755,13721.6 c -22.9,-180.6 165.3,-324 332.6,-312.7 185,12.5 341.9,164.2 368.9,346 29.3,196.7 -88.9,354.1 -271.8,368.5 -178,14 -291.9,-144.5 -240.5,-304.4 36.8,-114.6 141.5,-157.3 194.2,-125.7 41.1,24.6 38.6,86.8 -11.1,97.8 -20,4.4 -40.5,-6.7 -51.1,-22 -43.5,17.3 -85,96.5 -56.9,182.2 36,109.3 174.2,115.5 260,64.5 109.3,-64.9 126.5,-204.6 86.4,-316 -42.1,-117 -156.9,-209.1 -281.9,-217.9 -141.7,-10.1 -266.3,98.5 -277.7,239.6 -2.6,33.3 -47,32.5 -51.1,0.1"
         style="fill:#f48c7f;fill-opacity:1;fill-rule:nonzero;stroke:none"
         id="path72" /><path
         d="m 25926.5,14326.1 118.8,268.1 -153.5,249.8 c -17.5,28.4 5.3,64.6 38.5,61.2 l 291.7,-30.2 190.1,223.3 c 21.7,25.4 63.1,14.9 70.1,-17.7 l 61.5,-286.7 271,-111.9 c 30.9,-12.8 33.8,-55.4 4.9,-72.1 l -253.7,-147.1 -22.7,-292.4 c -2.5,-33.3 -42.2,-49.2 -67.1,-26.9 l -218.2,195.9 -285.1,-68.8 c -32.4,-7.9 -59.8,24.9 -46.3,55.5"
         style="fill:#f48c7f;fill-opacity:1;fill-rule:nonzero;stroke:none"
         id="path74" /><path
         d="m 14803.2,16224.8 89.1,201.1 -115.2,187.4 c -13.1,21.3 4,48.4 28.9,45.9 l 218.8,-22.6 142.6,167.4 c 16.3,19.1 47.3,11.2 52.6,-13.3 l 46.1,-215 203.3,-84 c 23.2,-9.5 25.3,-41.5 3.7,-54.1 l -190.3,-110.3 -17,-219.3 c -2,-25 -31.7,-36.9 -50.3,-20.1 l -163.8,146.8 -213.8,-51.6 c -24.3,-5.8 -44.9,18.8 -34.7,41.7"
         style="fill:#f7cc7f;fill-opacity:1;fill-rule:nonzero;stroke:none"
         id="path76" /><path
         d="m 27921.5,12005.4 126.1,229.2 391.2,-162.2 225.8,312.3 312.7,-73.5 37.2,158.2 -418.1,98.4 -214,-296 -407,168.8 -189.8,-344.9 135.9,-90.3"
         style="fill:#50bfa5;fill-opacity:1;fill-rule:nonzero;stroke:none"
         id="path78" /><path
         d="m 17659.6,16950.7 -222.2,138.2 183,382 -299.9,242.1 90.1,308.3 -156,45.6 -120.6,-412.2 284.2,-229.5 -190.3,-397.4 334.3,-208 97.4,130.9"
         style="fill:#07345a;fill-opacity:1;fill-rule:nonzero;stroke:none"
         id="path80" /><path
         d="m 21176.6,15598.8 147,239.8 -233.8,94.8 -147,-239.8 z m -595.8,-214 164.4,267.1 -132,53.5 c -28.9,11.7 -42.9,44.7 -31.1,73.6 11.7,28.9 44.6,42.8 73.5,31.1 l 152.3,-61.8 147,239.8 -141.1,57.2 c -28.9,11.8 -42.8,44.7 -31.1,73.6 11.8,28.9 44.7,42.8 73.6,31.1 l 161.2,-65.4 170.8,274.6 c 14.5,23.4 43.7,32.9 69.1,22.5 l 24.6,-10 c 32.4,-13.1 45.2,-52 27,-81.8 l -158.8,-259.1 233.8,-94.8 170.7,274.6 c 14.5,23.3 43.7,32.8 69.2,22.5 l 26.9,-10.9 c 32.3,-13.1 45.1,-52.1 26.9,-81.8 l -158.8,-259.1 132,-53.6 c 28.9,-11.7 42.9,-44.6 31.1,-73.5 -11.7,-28.9 -44.6,-42.8 -73.5,-31.1 l -152.3,61.7 -144.7,-240.7 141,-57.2 c 28.9,-11.7 42.8,-44.6 31.1,-73.5 -11.7,-28.9 -44.6,-42.9 -73.5,-31.1 l -161.3,65.4 -174.4,-283.3 c -14.4,-23.5 -43.7,-33.1 -69.3,-22.7 l -28.8,11.7 c -32.3,13.1 -45.1,52.2 -26.8,81.9 l 164.4,267.1 -233.8,94.8 -174.4,-283.3 c -14.4,-23.4 -43.7,-33 -69.3,-22.7 l -28.8,11.7 c -32.3,13.1 -45.1,52.2 -26.8,81.9"
         style="fill:#50bfa5;fill-opacity:1;fill-rule:nonzero;stroke:none"
         id="path82" /><path
         d="m 13427.2,18173.6 v 0 l -2.1,0.6 c -18.9,6.9 -38.2,13 -57.8,18.6 -6.6,1.9 -13.2,3.9 -20,5.7 -7,1.9 -14.2,3.6 -21.3,5.3 -7.2,1.7 -14.5,3.4 -21.8,5 -6.9,1.5 -13.8,2.8 -20.7,4.1 -7.8,1.5 -15.6,3 -23.4,4.3 -6.7,1.1 -13.4,2.1 -20.1,3.1 -8.4,1.2 -16.9,2.2 -25.5,3.2 -6.2,0.7 -12.4,1.5 -18.6,2.1 -9.8,0.9 -19.6,1.6 -29.4,2.2 -5.2,0.4 -10.4,0.8 -15.6,1.1 -15.1,0.7 -30.3,1.1 -45.6,1.1 H 6092.24 c -16.32,0 -32.54,-0.4 -48.66,-1.2 -32.24,-1.7 -64.04,-4.9 -95.35,-9.7 -15.65,-2.4 -31.18,-5.2 -46.57,-8.4 -400.15,-82.1 -708.23,-417.9 -750.21,-832.6 -3.23,-31.9 -4.88,-64.2 -4.88,-97 V 5571.1 2899.5 c 0,-410.7 260.03,-760.3 623.85,-892.5 1.61,-0.5 3.25,-1 4.86,-1.6 18.04,-6.5 36.38,-12.3 54.9,-17.6 6.69,-1.9 13.34,-3.9 20.08,-5.7 7.06,-1.9 14.2,-3.6 21.32,-5.3 7.24,-1.7 14.48,-3.4 21.78,-5 6.88,-1.5 13.81,-2.8 20.75,-4.2 7.77,-1.4 15.58,-2.9 23.42,-4.1 6.66,-1.2 13.32,-2.2 20.02,-3.2 8.47,-1.2 16.98,-2.2 25.53,-3.2 6.2,-0.7 12.4,-1.5 18.65,-2.1 9.75,-0.9 19.57,-1.6 29.41,-2.2 5.17,-0.3 10.31,-0.8 15.51,-1.1 15.12,-0.7 30.3,-1.1 45.59,-1.1 h 7013.06 c 32.7,0 64.9,1.7 96.7,4.9 445.1,45.3 798.9,400.4 844.1,847 3.3,31.9 4.9,64.2 4.9,97 v 11710 2671.6 c 0,410.7 -260,760.3 -623.8,892.5"
         style="fill:#e25a44;fill-opacity:1;fill-rule:nonzero;stroke:none"
         id="path84" /><path
         d="M 5605.01,3243.9 H 13619.8 V 16936.7 H 5605.01 Z"
         style="fill:#eafcfc;fill-opacity:1;fill-rule:nonzero;stroke:none"
         id="path86" /><path
         d="M 12498,8379.1 C 12060.4,7845 11597.5,7282.9 11192.9,6793.2 L 8849.81,8094.8 11274.7,9160.9 12498,8379.1 M 11861.5,6149 11343.3,4540 7073.74,6100.7 7150.49,7347.8 8575.73,7974.3 11861.5,6149 M 7040.66,9099.9 v 1487.9 l 2276.97,45 L 10702.3,9430.1 8326.38,8385.6 7040.66,9099.9 m -980.97,1707 1254.94,1593 1927.31,-80 v -1450.1 l -3182.25,-62.9 M 7588.14,14984.6 10433.8,13764 v -1016.2 l -2845.66,118 v 2118.8 m 3197.36,-2728.7 131.2,-2696.3 -1436.34,1247.6 v 1502.9 l 1305.14,-54.2 m 2834.3,-1087.2 -2313.2,189.8 -66,1355.8 -568.4,23.6 v 923.8 l 2947.6,-1264.3 v 259.5 l -977.8,419.4 -185.1,3860.4 h -238.7 l 180.1,-3755.9 -1726.1,740.3 v 26.4 h -61.5 l -392.7,168.5 -1.8,2820.7 h -238.45 l 1.76,-2718.4 -2391.37,1025.7 v 1692.7 h -476.85 v -1488.2 l -1506.28,646.1 v -259.4 l 1506.28,-646.1 v -1508.3 l -1506.28,703.1 v -263.1 l 1506.28,-703.1 v -890.6 l -1359.9,-1726.3 -146.38,-2.9 v -238.5 l 1197.23,23.7 V 8959.6 L 8052.3,8265.1 6740.84,7688.6 5605.01,8499.1 v -292.9 l 1072.63,-765.4 0.9,1.2 -258.35,-4198.1 h 477.75 l 160.53,2608.5 2015.09,-736.6 -230.65,-1871.9 h 240.22 l 220.3,1787.9 1966.77,-718.9 -344.3,-1069 h 250.5 l 317.9,987.1 2125.5,-777 v 253.9 l -2052.4,750.2 581,1804.2 -743.6,413.2 c 258.4,312.9 816.4,989.4 1373.2,1669.5 354.7,433.1 629.1,770 841.8,1032.9 v 379.6 c -263.7,-327.5 -604,-745.7 -969.7,-1192.7 l -1246.4,796.6 -85.5,1756.9 2301.6,-188.8 v 239.2"
         style="fill:#ffffff;fill-opacity:1;fill-rule:nonzero;stroke:none"
         id="path88" /><path
         d="m 11393.1,4309 -4676.79,1671.3 81.9,1523.4 4102.29,1813.4 -1622.6,1390.8 v 1757.9 l -2013.34,60.6 v 1601.9 h 170.3 v -1436.7 l 2013.33,-60.5 V 10786.2 L 11216.5,9270.5 6962.66,7390.2 6893.18,6098 11450.4,4469.3 11393.1,4309"
         style="fill:#c0dde3;fill-opacity:1;fill-rule:nonzero;stroke:none"
         id="path90" /><path
         d="m 7132.48,14876.1 c 1.57,125 104.15,225 229.12,223.4 124.97,-1.6 225,-104.1 223.43,-229.1 -1.58,-125 -104.16,-225 -229.13,-223.4 -124.97,1.5 -225,104.1 -223.42,229.1 z m -223.27,-179.8 436.4,-866.2 458.08,855 c 135.62,313.6 -82.08,671.3 -423.46,685.5 -5.05,0.2 -10.12,0.4 -15.21,0.4 -5.08,0.1 -10.16,0.1 -15.21,0 -341.63,-5.6 -568.28,-357.7 -440.6,-674.7"
         style="fill:#183658;fill-opacity:1;fill-rule:nonzero;stroke:none"
         id="path92" /><path
         d="m 11192.5,5354.9 c 1.6,125 104.2,225 229.2,223.5 124.9,-1.6 225,-104.2 223.4,-229.2 -1.6,-124.9 -104.2,-225 -229.2,-223.4 -124.9,1.6 -225,104.2 -223.4,229.1 m -223.2,-179.7 436.4,-866.2 458,854.9 c 135.7,313.6 -82,671.4 -423.4,685.6 -5.1,0.2 -10.1,0.3 -15.2,0.4 -5.1,0.1 -10.2,0.1 -15.2,0 -341.7,-5.6 -568.3,-357.8 -440.6,-674.7"
         style="fill:#184655;fill-opacity:1;fill-rule:nonzero;stroke:none"
         id="path94" /><path
         d="M 11305.6,17367 H 7904.98 c -4.79,0 -8.68,3.9 -8.68,8.7 v 154.2 c 0,4.8 3.89,8.7 8.68,8.7 h 3400.62 c 4.8,0 8.7,-3.9 8.7,-8.7 v -154.2 c 0,-4.8 -3.9,-8.7 -8.7,-8.7"
         style="fill:#ffffff;fill-opacity:1;fill-rule:nonzero;stroke:none"
         id="path96" /><g
         id="g98"><g
           id="g100"
           clip-path="url(#clipPath104)"><path
             d="m 9201.91,2190.5 h 784.59 v 787.301 h -784.59 z"
             style="fill:#e0877a;fill-opacity:1;fill-rule:nonzero;stroke:none"
             id="path106" /></g></g><path
         d="m 12763.7,3243.9 h -1587.3 l 97.3,302.3 c 602.4,-96.8 1181.6,-187.9 1496.7,-232.2 -1.7,-23.5 -4,-46.9 -6.7,-70.1 m -1837.8,0 H 9083.13 l 44.78,363.4 74.07,-19.5 c 8.12,-1.4 16.2,-2.1 24.14,-2.1 70.78,0 132.06,53.6 140.05,126.6 v 0 c 0.12,1.1 0.24,2.3 0.37,3.4 0.07,0.7 0.15,1.3 0.23,2 0.03,0.4 0.07,0.7 0.11,1 3.79,33.5 8.46,66.8 13.96,99.7 h 222.88 c 354.38,-58.4 889.78,-146.3 1431.88,-233.8 l -109.7,-340.7 m -2082.99,0 H 6897.94 l 35.36,574.5 h 1395.73 l 566.24,-149.6 -52.36,-424.9 m -2422.72,0 h -815.18 v 574.5 h 850.54 l -35.36,-574.5"
         style="fill:#c7eef1;fill-opacity:1;fill-rule:nonzero;stroke:none"
         id="path108" /><path
         d="m 11176.4,3243.9 h -250.5 l 109.7,340.7 c 79.5,-12.9 159,-25.7 238.1,-38.4 l -97.3,-302.3 m -2093.27,0 h -240.22 l 52.36,424.9 232.64,-61.5 -44.78,-363.4 m -2185.19,0 h -477.75 l 35.36,574.5 h 477.75 l -35.36,-574.5"
         style="fill:#d8f0f3;fill-opacity:1;fill-rule:nonzero;stroke:none"
         id="path110" /><path
         d="m 13619.8,16210.1 h -1128.1 l -34.8,726.6 h 1162.9 v -726.6 m -1366.8,0 h -2036.4 l -0.4,726.6 h 2002 l 34.8,-726.6 m -2274.78,0 H 7588.14 v 726.6 h 2389.61 l 0.47,-726.6 m -2866.93,0 H 5605.01 v 726.6 h 1506.28 v -726.6"
         style="fill:#c7eef1;fill-opacity:1;fill-rule:nonzero;stroke:none"
         id="path112" /><path
         d="M 12491.7,16210.1 H 12253 l -34.8,726.6 h 238.7 l 34.8,-726.6 m -2275.1,0 h -238.38 l -0.47,726.6 h 238.45 l 0.4,-726.6 m -2628.46,0 h -476.85 v 726.6 h 476.85 v -726.6"
         style="fill:#d8f0f3;fill-opacity:1;fill-rule:nonzero;stroke:none"
         id="path114" /><path
         d="m 24585.7,10724.5 h -2960.5 c -102.3,0 -185.2,-83.2 -185.2,-185.8 V 9312.8 c 0,-102.6 82.9,-185.8 185.2,-185.8 H 23956 c 94.3,-132.1 265.3,-368.6 280.4,-368.6 14.1,0 -13.1,223.4 -32.2,368.6 h 381.5 c 102.2,0 185.1,83.2 185.1,185.8 v 1225.9 c 0,102.6 -82.9,185.8 -185.1,185.8"
         style="fill:#f7cc7f;fill-opacity:1;fill-rule:nonzero;stroke:none"
         id="path116" /><path
         d="m 22698.8,10207.2 h -852.6 c -14.5,0 -26.2,11.7 -26.2,26.2 v 28.5 c 0,14.5 11.7,26.2 26.2,26.2 h 852.6 c 14.5,0 26.3,-11.7 26.3,-26.2 v -28.5 c 0,-14.5 -11.8,-26.2 -26.3,-26.2"
         style="fill:#ffffff;fill-opacity:1;fill-rule:nonzero;stroke:none"
         id="path118" /><path
         d="m 22405.1,9853.9 h -558.9 c -14.5,0 -26.2,11.7 -26.2,26.2 v 28.5 c 0,14.5 11.7,26.2 26.2,26.2 h 558.9 c 14.5,0 26.2,-11.7 26.2,-26.2 v -28.5 c 0,-14.5 -11.7,-26.2 -26.2,-26.2"
         style="fill:#ffffff;fill-opacity:1;fill-rule:nonzero;stroke:none"
         id="path120" /><path
         d="m 23231.3,9853.9 h -610.1 c -14.5,0 -26.2,11.7 -26.2,26.2 v 28.5 c 0,14.5 11.7,26.2 26.2,26.2 h 610.1 c 14.5,0 26.2,-11.7 26.2,-26.2 v -28.5 c 0,-14.5 -11.7,-26.2 -26.2,-26.2"
         style="fill:#ffffff;fill-opacity:1;fill-rule:nonzero;stroke:none"
         id="path122" /><path
         d="m 24378.1,9853.9 h -904.5 c -14.5,0 -26.2,11.7 -26.2,26.2 v 28.5 c 0,14.5 11.7,26.2 26.2,26.2 h 904.5 c 14.4,0 26.2,-11.7 26.2,-26.2 v -28.5 c 0,-14.5 -11.8,-26.2 -26.2,-26.2"
         style="fill:#ffffff;fill-opacity:1;fill-rule:nonzero;stroke:none"
         id="path124" /><path
         d="M 24378.1,10207.2 H 22946 c -14.5,0 -26.2,11.7 -26.2,26.2 v 28.5 c 0,14.5 11.7,26.2 26.2,26.2 h 1432.1 c 14.4,0 26.2,-11.7 26.2,-26.2 v -28.5 c 0,-14.5 -11.8,-26.2 -26.2,-26.2"
         style="fill:#ffffff;fill-opacity:1;fill-rule:nonzero;stroke:none"
         id="path126" /><path
         d="m 23006.2,9493.8 h -1160 c -14.5,0 -26.2,11.8 -26.2,26.3 v 28.5 c 0,14.4 11.7,26.2 26.2,26.2 h 1160 c 14.5,0 26.2,-11.8 26.2,-26.2 v -28.5 c 0,-14.5 -11.7,-26.3 -26.2,-26.3"
         style="fill:#ffffff;fill-opacity:1;fill-rule:nonzero;stroke:none"
         id="path128" /><path
         d="m 24378.1,9493.8 h -1160.4 c -14.5,0 -26.3,11.8 -26.3,26.3 v 28.5 c 0,14.4 11.8,26.2 26.3,26.2 h 1160.4 c 14.4,0 26.2,-11.8 26.2,-26.2 v -28.5 c 0,-14.5 -11.8,-26.3 -26.2,-26.3"
         style="fill:#ffffff;fill-opacity:1;fill-rule:nonzero;stroke:none"
         id="path130" /><path
         d="m 9184.48,3887.6 c 0,0 3784.82,-628 3830.22,-600.8 45.4,27.2 535.5,2142 535.5,2142 0,0 -3129.8,562.7 -3180.5,562.7 -50.7,0 -731.4,-544.5 -740.48,-580.9 -9.07,-36.3 -444.74,-1523 -444.74,-1523"
         style="fill:#183658;fill-opacity:1;fill-rule:nonzero;stroke:none"
         id="path132" /><path
         d="m 20729.6,3350.3 c 90.7,-9 4674.3,89.2 4674.3,89.2 L 25059,4493.9 c 0,0 -635.4,960.8 -971.2,943.3 -126.7,-6.6 -490.2,35.4 -912.2,77.5 -695.9,69.3 -1550.9,138.6 -1765.5,-10.2 -344.7,-239.1 -653.3,-48.5 -816.7,-620.3 -163.3,-571.8 -290.8,-635.8 -163.5,-980.5 127.2,-344.6 299.7,-553.4 299.7,-553.4"
         style="fill:#183658;fill-opacity:1;fill-rule:nonzero;stroke:none"
         id="path134" /><path
         d="m 9535.57,3511.2 c 0,-861.9 698.43,-1560.6 1560.03,-1560.6 861.6,0 1560.1,698.7 1560.1,1560.6 0,861.9 -698.5,1560.6 -1560.1,1560.6 -861.6,0 -1560.03,-698.7 -1560.03,-1560.6"
         style="fill:#1a1a1a;fill-opacity:1;fill-rule:nonzero;stroke:none"
         id="path136" /><path
         d="m 10010.2,3511.2 c 0,-599.7 486,-1085.8 1085.4,-1085.8 599.5,0 1085.5,486.1 1085.5,1085.8 0,599.7 -486,1085.8 -1085.5,1085.8 -599.4,0 -1085.4,-486.1 -1085.4,-1085.8"
         style="fill:#9e9da2;fill-opacity:1;fill-rule:nonzero;stroke:none"
         id="path138" /><path
         d="m 10369.7,3511.2 c 0,-401.1 325,-726.2 725.9,-726.2 401,0 726,325.1 726,726.2 0,401 -325,726.1 -726,726.1 -400.9,0 -725.9,-325.1 -725.9,-726.1"
         style="fill:#d8d9dd;fill-opacity:1;fill-rule:nonzero;stroke:none"
         id="path140" /><path
         d="m 21547,3511.2 c 0,-861.9 698.4,-1560.6 1560,-1560.6 861.6,0 1560.1,698.7 1560.1,1560.6 0,861.9 -698.5,1560.6 -1560.1,1560.6 -861.6,0 -1560,-698.7 -1560,-1560.6"
         style="fill:#1a1a1a;fill-opacity:1;fill-rule:nonzero;stroke:none"
         id="path142" /><path
         d="m 22021.6,3511.2 c 0,-599.7 486,-1085.8 1085.4,-1085.8 599.5,0 1085.5,486.1 1085.5,1085.8 0,599.7 -486,1085.8 -1085.5,1085.8 -599.4,0 -1085.4,-486.1 -1085.4,-1085.8"
         style="fill:#9e9da2;fill-opacity:1;fill-rule:nonzero;stroke:none"
         id="path144" /><path
         d="m 22381.1,3511.2 c 0,-401.1 325,-726.2 725.9,-726.2 401,0 726,325.1 726,726.2 0,401 -325,726.1 -726,726.1 -400.9,0 -725.9,-325.1 -725.9,-726.1"
         style="fill:#d8d9dd;fill-opacity:1;fill-rule:nonzero;stroke:none"
         id="path146" /><path
         d="m 26688.7,4996.4 c -131.9,869.7 -558.2,1052.4 -1819.5,1304.6 -1391.7,278.4 -3158.5,1186 -3158.5,1186 0,0 -3013.4,1476.4 -3751.6,1645.9 -738.2,169.4 -2553.5,121 -4078.3,108.9 C 12356,9229.7 11460.4,8806.1 10685.9,8201 9911.41,7595.9 8568.12,7136.1 8568.12,7136.1 l -244.03,-43.6 c -250.94,-44.8 -433.66,-263.1 -433.66,-518 V 4416.3 c 0,-244.4 164.59,-458.1 400.86,-520.5 l 881.92,-232.9 c 71.83,-12.4 138.61,38.6 146.53,111.1 96.59,882.9 859.86,1553.9 1770.06,1552.8 967.8,-1.1 1761.4,-796.3 1760.8,-1764.2 0,-109.9 -10.2,-217.5 -29.6,-321.9 -20,-107.8 62.8,-207.1 172.4,-207.1 h 8116.5 c 157.8,0 280.3,138.6 259.4,294.9 -10.1,75.2 -15.4,151.9 -15.6,229.9 -2.9,955.9 770.1,1748.4 1725.8,1768.1 990.8,20.4 1800.3,-776.6 1800.3,-1762.7 0,-65.3 -3.6,-129.8 -10.5,-193.2 -19.6,-179.7 119.4,-337 300.1,-337 h 1167.2 c 212.2,0 384.2,172 384.2,384.2 v 1130.5 c 0,149.9 -9.6,299.8 -32.1,448.1"
         style="fill:#f7cc7f;fill-opacity:1;fill-rule:nonzero;stroke:none"
         id="path148" /><path
         d="m 7941.86,6319.2 h 961.27 c 82.34,0 138.12,-83.9 106.29,-159.8 l -107.98,-257.7 c -102.95,-245.6 -343.26,-405.4 -609.58,-405.4 h -350 c -68.51,0 -124.05,55.5 -124.05,124 v 574.9 c 0,68.5 55.54,124 124.05,124"
         style="fill:#cf283c;fill-opacity:1;fill-rule:nonzero;stroke:none"
         id="path150" /><path
         d="m 25159.7,5919.8 c 529.3,-81 1139,-582.3 1139,-582.3 145.7,-156.6 25.4,-410.9 -188.1,-397.4 l -1032.2,65.2 c -214.4,13.6 -397.2,160.2 -457,366.6 -100.4,346.6 -15,632.7 538.3,547.9"
         style="fill:#f3fcff;fill-opacity:1;fill-rule:nonzero;stroke:none"
         id="path152" /><path
         d="m 7896.03,4336 c -66.18,1.6 -113.08,-64.9 -88.67,-126.4 69.03,-174 217.11,-310.8 406.43,-360.8 l 988.19,-261 c 80.48,-13.9 155.31,43.3 164.19,124.5 18.3,167.4 58.24,327.7 116.56,478.9 19.76,51.2 -17.51,106.5 -72.39,107.8 l -1514.31,37"
         style="fill:#eab054;fill-opacity:1;fill-rule:nonzero;stroke:none"
         id="path154" /><path
         d="m 24888.1,3929.2 c -75.1,1.9 -133.1,-64 -123.4,-138.5 10.6,-82.7 16.2,-167.1 16.2,-252.7 0,-72.5 -4,-144 -11.7,-214.4 -21.8,-199.3 132.5,-374 333,-374 h 1295.1 c 235.5,0 426.4,190.9 426.4,426.4 v 335.1 c 0,95.1 -75.9,172.7 -170.9,175.1 l -1764.7,43"
         style="fill:#eab054;fill-opacity:1;fill-rule:nonzero;stroke:none"
         id="path156" /><path
         d="m 21217.4,3905.8 -81.7,2 c 47.3,1392.7 442.4,2796.1 508.9,3023.7 -230.4,126 -1782.7,971.2 -2836.7,1459.4 -898.2,416 -1882.2,459 -2250.7,459 -48.3,0 -86.1,-0.7 -111.7,-1.4 V 4022.3 l -81.6,2 v 4823.5 c -103.8,2 -400.1,6.9 -791.5,6.9 -995.6,0 -2605.7,-31.7 -3221.7,-223.7 C 11492.9,8363.6 10345,7150.8 10204.5,6999.8 l 303,-1421.6 c 74.4,3.7 146.6,5.4 216.6,5.4 1071.4,0 1633.6,-411.5 1920.2,-771.5 212.4,-266.9 306.2,-538.1 346.7,-705.5 l -85.6,2.1 c -41.9,161.5 -133.2,412.8 -327.6,655.8 -387.9,484.6 -1026.3,737.4 -1855.7,737.4 -79.9,0 -161.6,-2.4 -245,-7.1 l -34.9,-2 -326.3,1531.2 14.1,15.5 c 51.2,56.2 1264.7,1379.1 2196.4,1669.5 626.2,195.2 2207.8,228.3 3208.6,228.3 477.3,0 822.5,-7.6 869.2,-8.6 10.3,0.5 63.9,2.9 151.9,2.9 375.2,0 1373.7,-44 2286.1,-466.6 1137.8,-527 2853.5,-1468.2 2870.7,-1477.7 l 29.1,-16 -9.8,-31.7 c -4.7,-15.7 -463.7,-1531.7 -514.8,-3033.8"
         style="fill:#f6ae51;fill-opacity:1;fill-rule:nonzero;stroke:none"
         id="path158" /><path
         d="m 9380.84,3818.4 h -0.05 c 1.99,11.9 4.1,23.8 6.31,35.7 h 0.07 c -2.22,-11.9 -4.33,-23.8 -6.33,-35.7"
         style="fill:#e9d7a0;fill-opacity:1;fill-rule:nonzero;stroke:none"
         id="path160" /><path
         d="m 9366.54,3715.7 c 0.07,0.7 0.15,1.3 0.23,2 -0.08,-0.7 -0.16,-1.3 -0.23,-2 m 0.34,3 c 3.78,33.5 8.43,66.8 13.91,99.7 h 0.05 c -5.5,-32.9 -10.17,-66.2 -13.96,-99.7"
         style="fill:#c6cb99;fill-opacity:1;fill-rule:nonzero;stroke:none"
         id="path162" /><path
         d="m 9387.17,3854.1 h -0.07 c 3.04,16.3 6.29,32.6 9.75,48.7 h 0.08 c -3.45,-16.1 -6.71,-32.4 -9.76,-48.7"
         style="fill:#182e38;fill-opacity:1;fill-rule:nonzero;stroke:none"
         id="path164" /><path
         d="m 9226.12,3585.7 c -7.94,0 -16.02,0.7 -24.14,2.1 l -74.07,19.5 -232.64,61.5 -681.48,180 c -189.32,50 -337.4,186.8 -406.43,360.8 l 1589.49,-306.8 c -3.46,-16.1 -6.71,-32.4 -9.75,-48.7 -2.21,-11.9 -4.32,-23.8 -6.31,-35.7 -5.48,-32.9 -10.13,-66.2 -13.91,-99.7 -0.04,-0.3 -0.08,-0.6 -0.11,-1 -0.08,-0.7 -0.16,-1.3 -0.23,-2 -0.13,-1.1 -0.25,-2.3 -0.37,-3.4 v 0 c -7.99,-73 -69.27,-126.6 -140.05,-126.6"
         style="fill:#e99635;fill-opacity:1;fill-rule:nonzero;stroke:none"
         id="path166" /><path
         d="m 24769.9,3330.2 c 0,0 0,0 0,0.1 0,-0.1 0,-0.1 0,-0.1 m 0.3,2.4 c 3.2,31 5.6,62.2 7.4,93.6 0.1,0 0,0 0.1,0 -1.8,-31.4 -4.3,-62.6 -7.5,-93.6"
         style="fill:#e5c99d;fill-opacity:1;fill-rule:nonzero;stroke:none"
         id="path168" /><path
         d="m 24777.6,3426.2 c 0.4,6.7 0.7,13.3 1,20 h 0.2 c -0.4,-6.7 -0.7,-13.3 -1.1,-20 -0.1,0 0,0 -0.1,0"
         style="fill:#182e38;fill-opacity:1;fill-rule:nonzero;stroke:none"
         id="path170" /><path
         d="m 26397.3,2949.6 h -1295.1 c -188,0 -335.3,153.5 -335,337 0,12.2 0.7,24.5 2,37 0.3,2.2 0.5,4.4 0.7,6.6 0,0 0,0 0,0.1 0.1,0.7 0.2,1.5 0.3,2.3 3.2,31 5.7,62.2 7.5,93.6 0.4,6.7 0.7,13.3 1.1,20 h 2044.9 V 3376 c 0,-235.5 -190.9,-426.4 -426.4,-426.4"
         style="fill:#e99635;fill-opacity:1;fill-rule:nonzero;stroke:none"
         id="path172" /><path
         d="m 21430.2,3446.2 c -0.3,88.4 6,175.4 18.4,260.5 14.9,102.3 -61.4,195 -164.7,197.5 l -8442,206.1 c -92.1,2.2 -158.5,-85.7 -133.4,-174.3 43.8,-154.6 67.3,-317.5 67.2,-485.4 -0.1,-111.4 -10.3,-220.3 -29.9,-326 -20.3,-110.4 62.9,-212.5 175.2,-212.5 h 8261.1 c 162.1,0 284.6,143.3 263.4,304 -9.9,75.3 -15.1,152.1 -15.3,230.1"
         style="fill:#eab054;fill-opacity:1;fill-rule:nonzero;stroke:none"
         id="path174" /><path
         d="m 21430.2,3446.2 v 0 c 0,1.5 0,2.9 0,4.4 v 0 c 0,-1.5 0,-2.9 0,-4.4"
         style="fill:#182e38;fill-opacity:1;fill-rule:nonzero;stroke:none"
         id="path176" /><path
         d="M 21182.1,2912.1 H 12921 c -100.9,0 -178.3,82.4 -178.2,179.2 0,11 1,22.1 3,33.3 19.6,105.7 29.8,214.6 29.9,326 h 8654.5 c 0,-1.5 0,-2.9 0,-4.4 v 0 0 c 0.2,-78 5.4,-154.8 15.3,-230.1 1.7,-12.3 2.4,-24.4 2.4,-36.4 -0.1,-145.3 -116.1,-267.6 -265.8,-267.6"
         style="fill:#e99635;fill-opacity:1;fill-rule:nonzero;stroke:none"
         id="path178" /><path
         d="m 12025.6,6373.2 h -1053.3 c -24.9,0 -45.2,20.2 -45.2,45.2 v 94.2 c 0,24.9 20.3,45.2 45.2,45.2 h 1053.3 c 24.9,0 45.2,-20.3 45.2,-45.2 v -94.2 c 0,-25 -20.3,-45.2 -45.2,-45.2"
         style="fill:#eab054;fill-opacity:1;fill-rule:nonzero;stroke:none"
         id="path180" /><path
         d="M 17832.2,6280.9 H 16779 c -25,0 -45.2,20.3 -45.2,45.2 v 94.2 c 0,24.9 20.2,45.2 45.2,45.2 h 1053.2 c 25,0 45.2,-20.3 45.2,-45.2 v -94.2 c 0,-24.9 -20.2,-45.2 -45.2,-45.2"
         style="fill:#eab054;fill-opacity:1;fill-rule:nonzero;stroke:none"
         id="path182" /><path
         d="m 11128.5,6842.6 4665.5,-44.1 c 0,0 285.6,7.7 324.4,276.4 38.9,268.7 35.6,1419.5 35.6,1419.5 0,0 -33.9,231.1 -255.2,234.1 -134.5,1.8 -1261.7,82.3 -2358,-51.2 -894.3,-109 -1721.6,-517.4 -2348.8,-1144.9 l -331.2,-331.2 c 0,0 -223.4,-354 267.7,-358.6"
         style="fill:#183658;fill-opacity:1;fill-rule:nonzero;stroke:none"
         id="path184" /><path
         d="M 16673.3,8348.4 V 7141.8 c 0,-156.8 120.3,-285.5 272.4,-291.7 l 3666,-147.4 c 84.1,-3.4 166.6,34.7 214.8,105.8 65.8,96.9 73.4,256.5 -255.1,470.4 -571.2,372 -2024.6,1176.6 -2562.3,1254.4 -342.2,49.6 -790,71.1 -1070.3,80.2 -145.3,4.7 -265.5,-115.3 -265.5,-265.1"
         style="fill:#183658;fill-opacity:1;fill-rule:nonzero;stroke:none"
         id="path186" /><path
         d="m 24424.1,8168.8 -24,-21.6 c -12.4,-11.1 -31,-10.7 -41.6,1 l -427,471 c -10.6,11.7 -9.2,30.2 3.2,41.3 l 24.1,21.6 c 12.3,11.1 31,10.7 41.6,-1 l 427,-471 c 10.5,-11.7 9.1,-30.2 -3.3,-41.3"
         style="fill:#183658;fill-opacity:1;fill-rule:nonzero;stroke:none"
         id="path188" /><path
         d="m 25871.7,8551.4 c -57,46.6 -498.4,-147.7 -492.8,-215.4 5.6,-67.6 -307.9,-723.4 -307.9,-723.4 l -541.9,433.5 -0.2,-0.1 c -4.8,15.7 -56.2,184.3 -58.7,214.4 -2.6,31.7 -94.2,87.1 -136.7,78.9 -42.5,-8.2 36.4,-61.7 41.5,-71.5 14.1,-26.8 -40.4,-36.8 -40.4,-36.8 0,0 -156.6,86.2 -159.9,136.9 -3.3,50.7 -35.6,157 -69.4,134.8 -17.5,-11.5 -17.3,-86.9 -11.9,-122.7 -10,40.6 -24.3,86.5 -38.1,91.1 -25.4,8.3 -38,-24.1 -33.4,-39.9 4.6,-15.9 45.5,-188.3 57.9,-207.8 12.2,-18.9 265,-223.3 301.5,-267.7 0,0 700.9,-804 750.8,-825 43.7,-18.4 199.9,258.6 347.4,442.6 147.5,183.9 570.6,832.6 392.2,978.1"
         style="fill:#f7a491;fill-opacity:1;fill-rule:nonzero;stroke:none"
         id="path190" /><path
         d="m 27286,2639.8 c 0,0 96.3,-94.3 98.5,-128.9 2.2,-34.6 8.5,-405.4 -30.8,-440 -39.3,-34.6 -154.8,-59.1 -117.7,-98 28.1,-29.5 244,-23.2 387,-15.3 41.8,2.3 94.2,336.7 110.7,385.9 24.1,71.3 82.5,232.1 60.7,281.9 -10.7,24.2 -61.6,74 -133.4,120.5 -75.4,48.9 -147.6,157.8 -147.6,157.8 L 27286,2639.8"
         style="fill:#f48c7f;fill-opacity:1;fill-rule:nonzero;stroke:none"
         id="path192" /><path
         d="m 26288.3,2420.2 86.3,-244.9 c 6.4,-38.7 31.6,-134.4 31.6,-169.6 0,-132.2 -594.1,112.2 -461,170.8 12.1,5.3 49.9,47.7 53.8,92.7 6.2,69.3 -50,156.2 -50,156.2 l 339.3,-5.2"
         style="fill:#f7a491;fill-opacity:1;fill-rule:nonzero;stroke:none"
         id="path194" /><path
         d="m 25356.2,6969.6 c 0,0 -43.3,-437.9 -43.3,-444.5 0,-708.5 -140,-2092.4 -113.3,-2225.6 64.9,-324.9 763.8,-1982.3 763.8,-1982.3 l 377.7,45.3 -492.2,1984.4 181.1,798.7 256.4,1578.8 -930.2,245.2"
         style="fill:#355389;fill-opacity:1;fill-rule:nonzero;stroke:none"
         id="path196" /><path
         d="m 26624,6582.2 71.6,-415.1 194,-1708.4 738.5,-1669.8 c 0,0 -103.9,-242.9 -257.2,-277 l -1175.4,1714.3 -730.1,2193.6 25.6,487.3 1133,-324.9"
         style="fill:#466eb6;fill-opacity:1;fill-rule:nonzero;stroke:none"
         id="path198" /><path
         d="m 25205.6,8012.5 523.8,-53.7 c 0,0 24,430.9 24,636.4 0,249.4 -21.2,570.5 -51.2,563.6 -84.2,-19.4 -197.6,-66 -265.2,-159.2 -233.7,-322.1 -231.4,-987.1 -231.4,-987.1"
         style="fill:#3c8f7c;fill-opacity:1;fill-rule:nonzero;stroke:none"
         id="path200" /><path
         d="m 25462.9,8639.2 c -11,-76 -212.3,-2142.9 -212.3,-2142.9 953.7,-462.2 1479.9,-82.3 1479.9,-82.3 0,0 -31.2,1451.3 6.2,1648.9 24.8,130.7 55.6,999.2 -28.8,1023.5 -108.3,31.2 -232.5,64.4 -367.9,78.5 -115.5,12 -564.4,19 -644.7,-8.1 0,0 -186.3,-197.9 -232.4,-517.6"
         style="fill:#50bfa5;fill-opacity:1;fill-rule:nonzero;stroke:none"
         id="path202" /><path
         d="m 27656.4,2748.3 c 0,0 -222,-627.1 -308.9,-657.4 -23.1,-8.1 -133.8,-28.5 -154.7,-77.6 -6.3,-14.8 0,-64.2 0,-64.2 h 462.7 c 0,0 58.5,276.3 81.7,397.7 0,0 122.4,296.6 108.8,323.6 -13.6,27 -189.6,77.9 -189.6,77.9"
         style="fill:#50bfa5;fill-opacity:1;fill-rule:nonzero;stroke:none"
         id="path204" /><path
         d="m 26440,1962.1 -68,215.7 c 0,0 -142.9,-60.7 -214.4,-50.6 -71.4,10.1 -210.9,50.6 -210.9,50.6 -285.2,-94.2 -518.8,-139.9 -476.3,-215.7 h 969.6"
         style="fill:#50bfa5;fill-opacity:1;fill-rule:nonzero;stroke:none"
         id="path206" /><path
         d="m 25132.1,7130.7 c -2.2,0.9 -10,7 -14.4,10.7 16.9,202.5 13.9,398.7 -49.5,465.1 1.6,3.1 15.4,32.7 29.9,63.3 73.4,-57 108.2,-208.3 94.6,-454 -1,-16.9 -5.8,-29.8 -9.7,-50.8 -21.3,-23.5 -40.6,-38.6 -50.9,-34.3"
         style="fill:#f7a491;fill-opacity:1;fill-rule:nonzero;stroke:none"
         id="path208" /><path
         d="m 27675.1,6474.4 c 0.6,4.4 0.7,8.9 0.3,13.3 -14.1,143.1 -132.5,1345.1 -152.5,1396.2 -18,46.1 -549.2,808.4 -549.2,808.4 l -261.1,-356.9 510.9,-683.7 c 11.4,-43.5 195.7,-854.9 195.7,-854.9 0,0 37.8,-147.8 54.8,-236.4 -7.8,-21.4 -15.3,-41.5 -22,-58.1 -17,-35.3 -36.9,-64.3 -55.1,-88.7 -22.8,-30.8 -60.6,-97.8 -65.2,-115.8 -5.4,-20.9 -15.2,-64.3 -20.7,-90.4 -5.5,-26.2 -13.1,-56.7 -14.4,-70.9 -0.7,-8.7 -9.6,-25.9 -16.5,-38.1 -10.2,-18.1 7.2,-39.6 26.9,-33 18.6,6.2 33,30.3 41.9,45.3 25.2,42.4 38.6,119.8 44.8,115.7 6.3,-4 28.3,-135.4 31.8,-150.2 3.5,-14.9 29.9,-167.4 44.8,-195.3 14.9,-27.9 34.7,-23.2 39.9,-5.7 4.5,15 -16.5,228.4 -16.5,228.4 0,0 -2.6,27.2 9.3,18.7 11.9,-8.5 31.3,-202.2 39.6,-230.6 8.2,-28.3 27.1,-43.4 43.1,-20.6 19.4,27.7 -14,233.2 -14,233.2 0,0 -3.8,25.9 7.2,23.5 11,-2.4 24.8,-167.6 33.3,-181.8 8.6,-14.3 30.2,-19.4 40.5,4.4 12.1,28 -19.3,211.2 -19.3,211.2 0,0 1.6,14.6 8.4,9.7 6.9,-4.8 28.6,-144.7 42.8,-157.7 11.9,-10.9 21.9,-0.3 21.9,-0.3 26,17.8 -13.9,150.9 -13.5,217.1 0.4,66.1 -30.2,140.5 -21.1,219.3 0.6,4.9 2.2,17.1 3.2,24.7"
         style="fill:#f8a492;fill-opacity:1;fill-rule:nonzero;stroke:none"
         id="path210" /><path
         d="M 27388.7,8209.5 26935,7903.8 c 0,0 -255.8,381.9 -393.1,517.8 -171.9,170.3 62.7,692 173.5,662.5 247.8,-66 673.3,-874.6 673.3,-874.6"
         style="fill:#3c8f7c;fill-opacity:1;fill-rule:nonzero;stroke:none"
         id="path212" /><path
         d="m 26306.7,9611.7 67.9,-448.9 c 0,0 -247.9,-534.4 -395.9,-488.1 -124.1,38.9 -47.7,511.8 -47.7,511.8 0,0 67.6,254 47.3,381.1 -20.3,127 328.4,44.1 328.4,44.1"
         style="fill:#f7a491;fill-opacity:1;fill-rule:nonzero;stroke:none"
         id="path214" /><path
         d="m 25978.3,9567.6 c -20.3,127 328.4,44.1 328.4,44.1 l 5.6,-37.2 c -10.2,-24.9 -22.7,-46.2 -37.8,-62.6 -77.9,-84.1 -199.6,-134.6 -304.8,-138.4 10.5,68.5 17,141.9 8.6,194.1"
         style="fill:#f47458;fill-opacity:1;fill-rule:nonzero;stroke:none"
         id="path216" /><path
         d="m 26363.9,10246.7 c 9.8,3.6 79,-511.2 -52.2,-652.9 -131.2,-141.6 -386.8,-188 -478.5,-76.4 -101.4,123.4 -96.3,676.7 107.7,822.4 203.9,145.7 423,-93.1 423,-93.1"
         style="fill:#f7a491;fill-opacity:1;fill-rule:nonzero;stroke:none"
         id="path218" /><path
         d="m 26018.5,10615.2 c 157.7,-32.3 259.8,-128.9 297.3,-170.1 71.6,-8.5 168.9,-48.2 269.4,-215.1 123.5,-205.3 32.3,-432.7 -111.5,-544.2 -143.9,-111.6 -141.9,-240.4 -141.9,-240.4 l -22.7,66.6 c -16.8,50.5 -23.6,104 -18,157 3.4,31.8 10.2,66.2 23.3,94.4 34.5,74.5 -74.3,124 -104.9,186 -23.5,47.7 -24.6,156.9 -61.7,235.8 l -44.2,60.2 c 0,0 -102,79.7 -201.9,57.3 -99.8,-22.5 -85.5,353.9 116.8,312.5"
         style="fill:#184655;fill-opacity:1;fill-rule:nonzero;stroke:none"
         id="path220" /><path
         d="m 26216.2,9857.8 c -1,-62.8 27.5,-114.2 63.6,-114.9 36.1,-0.6 66.3,49.8 67.3,112.6 1.1,62.8 -27.4,114.3 -63.5,114.9 -36.2,0.6 -66.3,-49.8 -67.4,-112.6"
         style="fill:#f7a491;fill-opacity:1;fill-rule:nonzero;stroke:none"
         id="path222" /><path
         d="m 26003.2,9712.7 -197.7,10.2 c 0,0 0.6,-75.6 87.5,-82.6 105.8,-8.6 110.2,72.4 110.2,72.4"
         style="fill:#ffffff;fill-opacity:1;fill-rule:nonzero;stroke:none"
         id="path224" /><path
         d="m 15860.1,12741.6 c 4,319.7 266.4,575.5 586,571.5 319.7,-4 575.5,-266.4 571.5,-586 -4,-319.7 -266.4,-575.5 -586,-571.5 -319.7,4 -575.5,266.4 -571.5,586 z m -571,-459.7 1116.1,-2215.6 1171.7,2186.7 c 346.8,802.1 -210,1717.2 -1083.1,1753.5 -12.9,0.6 -25.9,0.9 -38.9,1.1 -13,0.2 -26,0.1 -38.9,-0.1 -873.8,-14.3 -1453.5,-915.1 -1126.9,-1725.6"
         style="fill:#f47458;fill-opacity:1;fill-rule:nonzero;stroke:none"
         id="path226" /><path
         d="M 30853.9,1679.9 H 1838.38 c -69.31,0 -125.5,56.2 -125.5,125.5 v 31.2 c 0,69.3 56.19,125.5 125.5,125.5 H 30853.9 c 69.3,0 125.5,-56.2 125.5,-125.5 v -31.2 c 0,-69.3 -56.2,-125.5 -125.5,-125.5"
         style="fill:#183658;fill-opacity:1;fill-rule:nonzero;stroke:none"
         id="path228" /></g></g></svg>
