<svg width="725" height="210" xmlns="http://www.w3.org/2000/svg">

 <g>
  <title>Layer 1</title>
  <path stroke-width="23" id="svg_1" d="m41.70974,97.68486l25.33054,0l7.82733,-24.06392l7.82734,24.06392l25.33054,0l-20.4928,14.87215l7.82774,24.06392l-20.49281,-14.87256l-20.49281,14.87256l7.82774,-24.06392l-20.49281,-14.87215z" opacity="undefined" stroke="#f97153" fill="#000"/>
  <path stroke-width="23" id="svg_2" d="m185.54878,97.68486l25.33055,0l7.82733,-24.06392l7.82733,24.06392l25.33054,0l-20.4928,14.87215l7.82774,24.06392l-20.49281,-14.87256l-20.49281,14.87256l7.82774,-24.06392l-20.49281,-14.87215z" opacity="undefined" stroke="#f97153" fill="#000"/>
  <path stroke-width="23" id="svg_3" d="m328.76112,97.68486l25.33055,0l7.82733,-24.06392l7.82733,24.06392l25.33054,0l-20.4928,14.87215l7.82774,24.06392l-20.49281,-14.87256l-20.49281,14.87256l7.82774,-24.06392l-20.49281,-14.87215z" opacity="undefined" stroke="#f97153" fill="#000"/>
  <path stroke-width="23" id="svg_4" d="m473.87131,97.68486l25.33055,0l7.82733,-24.06392l7.82733,24.06392l25.33054,0l-20.4928,14.87215l7.82774,24.06392l-20.49281,-14.87256l-20.49281,14.87256l7.82774,-24.06392l-20.49281,-14.87215z" opacity="undefined" stroke="#f97153" fill="#000"/>
  <path stroke-width="23" id="svg_5" d="m618.936,97.68486l25.33055,0l7.82733,-24.06392l7.82733,24.06392l25.33054,0l-20.4928,14.87215l7.82774,24.06392l-20.49281,-14.87256l-20.49281,14.87256l7.82774,-24.06392l-20.49281,-14.87215z" opacity="undefined" stroke="#f97153" fill="#000"/>
 </g>
</svg>